<svg enable-background="new 0 0 24 24" height="512" viewBox="0 0 24 24" width="512" xmlns="http://www.w3.org/2000/svg"><path d="m10 19c-4.962 0-9-4.038-9-9s4.038-9 9-9 9 4.038 9 9-4.038 9-9 9z" fill="#607d8b"/><path d="m10 1.5c-4.687 0-8.5 3.813-8.5 8.5s3.813 8.5 8.5 8.5 8.5-3.813 8.5-8.5-3.813-8.5-8.5-8.5z" fill="#eceff1"/><circle cx="10" cy="6" fill="#2196f3" r="2.43"/><path d="m14.5 14.075c0 .373-.302.675-.675.675h-7.65c-.373 0-.675-.302-.675-.675v-1.35c0-1.365 1.11-2.475 2.475-2.475h4.05c1.365 0 2.475 1.11 2.475 2.475z" fill="#2196f3"/><path d="m10 20c-5.514 0-10-4.486-10-10s4.486-10 10-10 10 4.486 10 10-4.486 10-10 10zm0-18.5c-4.687 0-8.5 3.813-8.5 8.5s3.813 8.5 8.5 8.5 8.5-3.813 8.5-8.5-3.813-8.5-8.5-8.5z"/><path d="m23.25 24c-.192 0-.384-.073-.53-.22l-6.71-6.71c-.293-.293-.293-.768 0-1.061s.768-.293 1.061 0l6.71 6.71c.293.293.293.768 0 1.061-.147.147-.339.22-.531.22z"/><path d="m10 9c-1.654 0-3-1.346-3-3s1.346-3 3-3 3 1.346 3 3-1.346 3-3 3zm0-4.5c-.827 0-1.5.673-1.5 1.5s.673 1.5 1.5 1.5 1.5-.673 1.5-1.5-.673-1.5-1.5-1.5z"/><path d="m14.25 15c-.414 0-.75-.336-.75-.75v-1.5c0-.689-.561-1.25-1.25-1.25h-4.5c-.689 0-1.25.561-1.25 1.25v1.5c0 .414-.336.75-.75.75s-.75-.336-.75-.75v-1.5c0-1.517 1.233-2.75 2.75-2.75h4.5c1.517 0 2.75 1.233 2.75 2.75v1.5c0 .414-.336.75-.75.75z"/></svg>