<svg height="512pt" viewBox="0 -32 512 512" width="512pt" xmlns="http://www.w3.org/2000/svg"><path d="m410.472656 326.28125h-337.136718c-36.359376 0-65.835938-29.476562-65.835938-65.835938v-187.011718c0-36.363282 29.476562-65.835938 65.835938-65.835938h337.136718c36.363282 0 65.835938 29.472656 65.835938 65.835938v187.011718c0 36.359376-29.476563 65.835938-65.835938 65.835938zm0 0" fill="#00b4fd"/><path d="m113.9375 260.445312v-187.011718c0-36.363282 29.472656-65.835938 65.835938-65.835938h-106.4375c-36.359376 0-65.835938 29.472656-65.835938 65.835938v187.011718c0 36.359376 29.476562 65.835938 65.835938 65.835938h106.4375c-36.363282 0-65.835938-29.476562-65.835938-65.835938zm0 0" fill="#0092e2"/><path d="m485.648438 324.996094h-38.039063v-97.402344c0-22.75-18.507813-41.257812-41.257813-41.257812s-41.257812 18.507812-41.257812 41.257812v97.402344h-38.035156v-97.402344c0-43.722656 35.570312-79.292969 79.292968-79.292969 43.722657 0 79.296876 35.570313 79.296876 79.292969zm0 0" fill="#516980"/><path d="m467.082031 440.25h-121.457031c-20.664062 0-37.417969-16.753906-37.417969-37.417969v-68.039062c0-54.203125 43.941407-98.144531 98.144531-98.144531 54.207032 0 98.148438 43.941406 98.148438 98.144531v68.039062c0 20.664063-16.753906 37.417969-37.417969 37.417969zm0 0" fill="#f4e74d"/><path d="m443.929688 328.46875c0-21.550781-18.144532-38.867188-39.988282-37.5-19.339844 1.207031-34.796875 17.40625-35.160156 36.78125-.207031 11.058594 4.367188 21.046875 11.796875 28.050781 4.710937 4.441407 7.246094 10.726563 7.246094 17.203125v17.417969c0 10.234375 8.292969 18.53125 18.527343 18.53125 10.234376 0 18.53125-8.296875 18.53125-18.53125v-17.417969c0-6.644531 2.816407-12.917968 7.59375-17.535156 7.0625-6.828125 11.453126-16.398438 11.453126-27zm0 0" fill="#516980"/><path d="m403.941406 323.617188c15.914063-.996094 29.855469 7.9375 36.257813 21.1875 2.390625-4.9375 3.730469-10.484376 3.730469-16.335938 0-21.550781-18.144532-38.867188-39.988282-37.5-19.339844 1.207031-34.796875 17.40625-35.160156 36.78125-.113281 6.136719 1.246094 11.949219 3.746094 17.101562 5.769531-11.855468 17.601562-20.375 31.414062-21.234374zm0 0" fill="#3e4f61"/><path d="m120.363281 148.296875h-35.355469c-14.292968 0-25.875-11.582031-25.875-25.875v-35.355469c0-14.289062 11.582032-25.875 25.875-25.875h35.355469c14.289063 0 25.875 11.585938 25.875 25.875v35.355469c0 14.292969-11.585937 25.875-25.875 25.875zm0 0" fill="#fffcdc"/><path d="m113.9375 148.296875v-74.863281c0-4.1875.386719-8.273438 1.136719-12.242188h-30.066407c-14.292968 0-25.875 11.585938-25.875 25.875v35.355469c0 14.292969 11.585938 25.875 25.875 25.875zm0 0" fill="#f9ee80"/><path d="m224.925781 216.382812h-147.914062c-9.875 0-17.878907-8.003906-17.878907-17.878906s8.003907-17.878906 17.878907-17.878906h147.914062c9.875 0 17.878907 8.003906 17.878907 17.878906s-8.003907 17.878906-17.878907 17.878906zm0 0" fill="#516980"/><path d="m160.191406 280.246094h-83.179687c-9.875 0-17.878907-8.003906-17.878907-17.878906s8.003907-17.878907 17.878907-17.878907h83.179687c9.875 0 17.882813 8.003907 17.882813 17.878907s-8.007813 17.878906-17.882813 17.878906zm0 0" fill="#516980"/><path d="m77.011719 180.625c-9.875 0-17.878907 8.003906-17.878907 17.878906s8.003907 17.882813 17.878907 17.882813h36.925781v-35.761719zm0 0" fill="#3e4f61"/><path d="m59.132812 262.367188c0 9.875 8.003907 17.878906 17.878907 17.878906h39.957031c-1.972656-6.25-3.03125-12.898438-3.03125-19.800782v-15.957031h-36.925781c-9.875 0-17.878907 8.003907-17.878907 17.878907zm0 0" fill="#3e4f61"/><path d="m252.390625 111.335938c0-9.078126-9.242187-16.4375-20.644531-16.4375-11.398438 0-20.640625 7.359374-20.640625 16.4375 0 9.078124 9.242187 16.4375 20.640625 16.4375 11.402344 0 20.644531-7.359376 20.644531-16.4375zm0 0" fill="#fdb2db"/><path d="m405.304688 111.335938c0-9.078126-9.242188-16.4375-20.640626-16.4375-11.398437 0-20.640624 7.359374-20.640624 16.4375 0 9.078124 9.242187 16.4375 20.640624 16.4375 11.398438 0 20.640626-7.359376 20.640626-16.4375zm0 0" fill="#fdb2db"/><path d="m308.207031 111.335938c7.136719 0 13.738281-3.5625 17.660157-9.527344 2.273437-3.460938 1.308593-8.113282-2.152344-10.386719-1.269532-.832031-6.882813-2.992187-10.386719 2.152344-1.679687 2.464843-4.128906 2.761719-5.121094 2.761719-.996093 0-3.484375-.269532-5.125-2.761719-2.273437-3.464844-6.925781-4.425781-10.386719-2.152344-3.460937 2.273437-4.421874 6.925781-2.148437 10.386719 3.917969 5.964844 10.519531 9.527344 17.660156 9.527344zm0 0"/><path d="m244.011719 97.085938c.859375-.859376 1.867187-.988282 2.386719-.988282.523437 0 1.457031.207032 2.386718.988282 4.738282 3.960937 9.144532 1.464843 10.609375 0 2.929688-2.929688 2.929688-7.679688 0-10.605469-3.472656-3.472657-8.085937-5.382813-12.996093-5.382813-4.90625 0-9.519532 1.910156-12.992188 5.382813-2.929688 2.925781-2.929688 7.675781 0 10.605469 2.929688 2.929687 7.675781 2.929687 10.605469 0zm0 0"/><path d="m367.625 97.085938c.859375-.859376 1.863281-.988282 2.386719-.988282.523437 0 1.453125.207032 2.386719.988282 4.734374 3.960937 9.144531 1.464843 10.609374 0 2.929688-2.929688 2.929688-7.679688 0-10.605469-3.472656-3.472657-8.085937-5.382813-12.996093-5.382813-4.90625 0-9.523438 1.910156-12.992188 5.382813-2.929687 2.925781-2.929687 7.675781 0 10.605469 2.925781 2.929687 7.675781 2.929687 10.605469 0zm0 0"/><path d="m504.5 333.859375c-4.144531 0-7.5 3.355469-7.5 7.5v61.472656c0 16.496094-13.421875 29.917969-29.917969 29.917969h-121.457031c-16.496094 0-29.917969-13.421875-29.917969-29.917969v-68.039062c0-49.980469 40.664063-90.644531 90.644531-90.644531 41.957032 0 78.175782 28.425781 88.082032 69.128906.976562 4.023437 5.035156 6.496094 9.058594 5.515625 4.023437-.980469 6.492187-5.035157 5.515624-9.0625-3.15625-12.964844-8.613281-24.851563-15.859374-35.296875v-46.839844c0-14.070312-3.371094-27.371094-9.339844-39.132812v-115.027344c0-40.4375-32.898438-73.3359378-73.335938-73.3359378h-297.742187c-4.144531 0-7.5 3.3554688-7.5 7.4999998 0 4.140625 3.355469 7.5 7.5 7.5h297.742187c32.167969 0 58.335938 26.167969 58.335938 58.335938v93.953125c-15.796875-16.382813-37.957032-26.589844-62.457032-26.589844-47.859374 0-86.792968 38.9375-86.792968 86.792969v47.042968c-8.984375 12.921876-15.164063 27.933594-17.640625 44.148438h-228.582031c-32.167969 0-58.335938-26.167969-58.335938-58.335938v-187.011718c0-32.167969 26.167969-58.335938 58.335938-58.335938 0 0 14.929687 1.523438 14.929687-7.5 0-9.023437-14.929687-7.4999998-14.929687-7.4999998-40.4375 0-73.335938 32.8984378-73.335938 73.3359378v187.011718c0 40.4375 32.898438 73.335938 73.335938 73.335938h227.382812c-.003906.335938-.011719 69.046875-.011719 69.046875 0 24.769531 20.148438 44.921875 44.917969 44.921875h121.457031c24.769531 0 44.917969-20.152344 44.917969-44.921875v-61.472656c0-4.140625-3.355469-7.496094-7.5-7.496094zm-98.148438-104.710937c-11.796874 0-23.152343 1.945312-33.757812 5.53125v-7.085938c0-18.617188 15.144531-33.757812 33.757812-33.757812 18.617188 0 33.757813 15.144531 33.757813 33.757812v7.054688c-10.644531-3.570313-22.003906-5.5-33.757813-5.5zm0-73.351563c39.589844 0 71.796876 32.207031 71.796876 71.792969v29.566406c-6.90625-6.382812-14.660157-11.808594-23.039063-16.152344v-13.414062c0-26.882813-21.871094-48.753906-48.757813-48.753906-26.882812 0-48.757812 21.871093-48.757812 48.753906v13.503906c-8.402344 4.390625-16.144531 9.878906-23.035156 16.273438v-29.777344c0-39.585938 32.207031-71.792969 71.792968-71.792969zm0 0"/><path d="m406.351562 416.453125c14.355469 0 26.03125-11.675781 26.03125-26.03125v-17.417969c0-4.523437 1.886719-8.832031 5.308594-12.144531 8.859375-8.570313 13.738282-20.070313 13.738282-32.390625 0-12.394531-7.5-46.074219-47.957032-44.988281-23.257812.625-41.75 20.832031-42.1875 44.128906-.238281 12.679687 4.917969 24.945313 14.148438 33.648437 3.105468 2.929688 4.890625 7.210938 4.890625 11.746094v17.417969c0 14.355469 11.675781 26.03125 26.027343 26.03125zm-30.070312-88.5625c.289062-15.542969 12.070312-29.5 30.082031-29.5 16.503907 0 30.066407 12.558594 30.066407 30.078125 0 8.21875-3.257813 15.890625-9.167969 21.605469-6.277344 6.074219-9.878907 14.429687-9.878907 22.929687v17.417969c0 6.082031-4.949218 11.03125-11.03125 11.03125-6.082031 0-11.027343-4.949219-11.027343-11.03125v-17.417969c0-8.648437-3.5-16.910156-9.601563-22.660156-6.160156-5.808594-9.601562-13.992188-9.441406-22.453125zm0 0"/><path d="m120.363281 53.691406h-35.355469c-18.402343 0-33.375 14.972656-33.375 33.375v35.355469c0 18.402344 14.972657 33.378906 33.375 33.378906h35.355469c18.402344 0 33.375-14.972656 33.375-33.378906v-35.355469c0-18.402344-14.972656-33.375-33.375-33.375zm18.375 68.730469c0 10.132813-8.242187 18.378906-18.375 18.378906h-35.355469c-10.132812 0-18.375-8.246093-18.375-18.378906v-35.355469c0-10.128906 8.242188-18.375 18.375-18.375h35.355469c10.132813 0 18.375 8.242188 18.375 18.375zm0 0"/><path d="m77.011719 173.125c-13.996094 0-25.378907 11.386719-25.378907 25.378906 0 13.996094 11.382813 25.378906 25.378907 25.378906h147.914062c13.996094 0 25.378907-11.382812 25.378907-25.378906 0-13.992187-11.382813-25.378906-25.378907-25.378906zm158.292969 25.378906c0 5.722656-4.65625 10.378906-10.378907 10.378906h-147.914062c-5.726563 0-10.378907-4.65625-10.378907-10.378906s4.652344-10.378906 10.378907-10.378906h147.914062c5.722657 0 10.378907 4.65625 10.378907 10.378906zm0 0"/><path d="m77.011719 236.988281c-13.996094 0-25.378907 11.382813-25.378907 25.378907 0 13.996093 11.382813 25.378906 25.378907 25.378906h83.179687c13.996094 0 25.378906-11.382813 25.378906-25.378906 0-13.996094-11.382812-25.378907-25.378906-25.378907zm93.5625 25.378907c0 5.726562-4.65625 10.378906-10.378907 10.378906h-83.183593c-5.726563 0-10.378907-4.652344-10.378907-10.378906 0-5.722657 4.652344-10.378907 10.378907-10.378907h83.179687c5.722656 0 10.382813 4.65625 10.382813 10.378907zm0 0"/></svg>