<svg height="480pt" viewBox="0 0 480 480" width="480pt" xmlns="http://www.w3.org/2000/svg"><path d="m472 72c0 35.359375-64 96-64 96s-64-60.640625-64-96c0-35.347656 28.652344-64 64-64s64 28.652344 64 64zm0 0" fill="#ff3051"/><path d="m440 72c0 17.671875-14.328125 32-32 32s-32-14.328125-32-32 14.328125-32 32-32 32 14.328125 32 32zm0 0" fill="#57a4ff"/><path d="m232 256c0 61.839844-112 184-112 184s-112-122.160156-112-184c0-61.855469 50.144531-112 112-112s112 50.144531 112 112zm0 0" fill="#57a4ff"/><path d="m440 72c.019531 15.082031-10.507812 28.121094-25.253906 31.285156-14.742188 3.167969-29.695313-4.40625-35.867188-18.164062 4.117188 1.894531 8.589844 2.875 13.121094 2.878906 17.671875 0 32-14.328125 32-32-.003906-4.53125-.984375-9.003906-2.878906-13.121094 11.484375 5.136719 18.878906 16.542969 18.878906 29.121094zm0 0" fill="#2488ff"/><path d="m232 256c0 61.839844-112 184-112 184s-5.921875-6.398438-15.039062-17.039062c10.71875-11.839844 111.039062-124.402344 111.039062-182.960938.046875-25.792969-8.890625-50.800781-25.28125-70.71875 26.15625 21.183594 41.328125 53.058594 41.28125 86.71875zm0 0" fill="#2488ff"/><path d="m192 256c0 39.765625-32.234375 72-72 72s-72-32.234375-72-72 32.234375-72 72-72 72 32.234375 72 72zm0 0" fill="#ff3051"/><path d="m472 72c0 35.359375-64 96-64 96s-6.71875-6.398438-15.839844-16.160156c3.761719-3.601563 63.839844-61.601563 63.839844-95.839844.035156-13.058594-3.992188-25.808594-11.519531-36.480469 17.261719 11.886719 27.558593 31.519531 27.519531 52.480469zm0 0" fill="#d80027"/><path d="m192 256c.023438 31.207031-20.070312 58.871094-49.753906 68.496094-29.683594 9.628906-62.191406-.976563-80.484375-26.257813 28.621093 20.828125 68.144531 17.730469 93.175781-7.300781s28.128906-64.554688 7.300781-93.175781c18.734375 13.476562 29.8125 35.160156 29.761719 58.238281zm0 0" fill="#d80027"/><path d="m200 256c0-44.183594-35.816406-80-80-80s-80 35.816406-80 80 35.816406 80 80 80c44.164062-.046875 79.953125-35.835938 80-80zm-144 0c0-35.347656 28.652344-64 64-64s64 28.652344 64 64-28.652344 64-64 64c-35.328125-.039062-63.960938-28.671875-64-64zm0 0"/><path d="m125.894531 445.40625c4.65625-5.078125 114.105469-125.175781 114.105469-189.40625 0-66.273438-53.726562-120-120-120s-120 53.726562-120 120c0 64.230469 109.449219 184.328125 114.105469 189.40625 1.515625 1.652344 3.652343 2.59375 5.894531 2.59375s4.378906-.941406 5.894531-2.59375zm-109.894531-189.40625c0-57.4375 46.5625-104 104-104s104 46.5625 104 104c0 50.136719-81.175781 146.015625-104 172-22.824219-25.976562-104-121.839844-104-172zm0 0"/><path d="m256 368h176c26.507812 0 48-21.492188 48-48s-21.492188-48-48-48h-128c-17.671875 0-32-14.328125-32-32s14.328125-32 32-32h104v-16h-104c-26.507812 0-48 21.492188-48 48s21.492188 48 48 48h128c17.671875 0 32 14.328125 32 32s-14.328125 32-32 32h-176c-22.089844 0-40 17.910156-40 40s17.910156 40 40 40h192c8.835938 0 16 7.164062 16 16s-7.164062 16-16 16h-328v16h328c17.671875 0 32-14.328125 32-32s-14.328125-32-32-32h-192c-13.253906 0-24-10.746094-24-24s10.746094-24 24-24zm0 0"/><path d="m448 72c0-22.089844-17.910156-40-40-40s-40 17.910156-40 40 17.910156 40 40 40c22.082031-.027344 39.972656-17.917969 40-40zm-64 0c0-13.253906 10.746094-24 24-24s24 10.746094 24 24-10.746094 24-24 24-24-10.746094-24-24zm0 0"/><path d="m402.496094 173.808594c3.085937 2.925781 7.921875 2.925781 11.007812 0 6.808594-6.457032 66.496094-64.113282 66.496094-101.808594 0-39.765625-32.234375-72-72-72s-72 32.234375-72 72c0 37.695312 59.6875 95.351562 66.496094 101.808594zm5.503906-157.808594c30.914062.035156 55.964844 25.085938 56 56 0 23.679688-36.425781 65.152344-56 84.800781-19.574219-19.65625-56-61.113281-56-84.800781.035156-30.914062 25.085938-55.964844 56-56zm0 0"/></svg>