<svg id="Layer_1" enable-background="new 0 0 512 512" height="512" viewBox="0 0 512 512" width="512" xmlns="http://www.w3.org/2000/svg"><path id="XMLID_1862_" d="m120.105 225h-24.807c-5.523 0-10-4.477-10-10v-132c0-5.523 4.477-10 10-10h24.807z" fill="#cdbfbb"/><path id="XMLID_1440_" d="m98.298 73h21.807v152h-21.807z" fill="#9e9797"/><path id="XMLID_1859_" d="m391.895 73h24.807c5.523 0 10 4.477 10 10v33c0 5.523-4.477 10-10 10h-24.807z" fill="#cdbfbb"/><path id="XMLID_1858_" d="m391.895 73h21.807v53h-21.807z" fill="#9e9797"/><path id="XMLID_1856_" d="m391.895 161.167h24.807c5.523 0 10 4.477 10 10v33c0 5.523-4.477 10-10 10h-24.807z" fill="#cdbfbb"/><path id="XMLID_1855_" d="m391.895 161.167h21.807v53h-21.807z" fill="#9e9797"/><path id="XMLID_1854_" d="m391.895 383.833h24.807c5.523 0 10 4.477 10 10v33c0 5.523-4.477 10-10 10h-24.807z" fill="#cdbfbb"/><path id="XMLID_1853_" d="m391.895 383.833h21.807v53h-21.807z" fill="#9e9797"/><path id="XMLID_1850_" d="m381.202 504.5h-250.404c-11.046 0-20-8.954-20-20v-457c0-11.046 8.954-20 20-20h250.404c11.046 0 20 8.954 20 20v457c0 11.046-8.954 20-20 20z" fill="#b9acac"/><path id="XMLID_1443_" d="m401.2 27.5v457c0 11.05-8.95 20-20 20h-28.66c11.04 0 20-8.95 20-20v-457c0-11.05-8.96-20-20-20h28.66c11.05 0 20 8.95 20 20z" fill="#9e9797"/><path id="XMLID_1848_" d="m110.798 46.513h290.404v418.974h-290.404z" fill="#5591d6"/><path id="XMLID_1444_" d="m372.54 46.51h28.66v418.98h-28.66z" fill="#1475cb"/><path id="XMLID_1446_" d="m351.75 217.702v117.52c0 1.54-.66 2.93-1.71 3.9-.95.9-2.23 1.44-3.63 1.44h-180.82c-1.4 0-2.68-.54-3.63-1.44-1.05-.97-1.71-2.36-1.71-3.9v-117.52c0-1.54.66-2.93 1.71-3.9.21-.2 78.41-66.65 90.81-77.18 1.87-1.58 4.59-1.58 6.46 0 12.4 10.53 90.6 76.98 90.81 77.18 1.05.971 1.71 2.36 1.71 3.9z" fill="#fb4a59"/><path id="XMLID_1447_" d="m351.75 217.702v117.52c0 1.54-.66 2.93-1.71 3.9-.95.9-2.23 1.44-3.63 1.44h-180.82c-1.4 0-2.68-.54-3.63-1.44-1.05-.97-1.71-2.36-1.71-3.9v-117.52c0-1.54.66-2.93 1.71-3.9.21-.2 4.79-4.1 11.83-10.09.65.5 1.33 1.03 2.04 1.58 2.64 2.07 56.03 46.07 61.85 50.93l5.27-4.41c3.65-3.06 8.29-4.74 13.05-4.74s9.4 1.68 13.05 4.74l5.27 4.41c5.82-4.86 60.81-50.22 63.89-52.51 7.04 5.99 11.62 9.89 11.83 10.09 1.05.971 1.71 2.36 1.71 3.9z" fill="#f82f40"/><path id="XMLID_1448_" d="m351.75 217.702v117.52c0 1.54-.66 2.93-1.71 3.9-.95.9-2.23 1.44-3.63 1.44h-180.82c-1.4 0-2.68-.54-3.63-1.44-1.05-.97-1.71-2.36-1.71-3.9v-117.52c0-1.54.66-2.93 1.71-3.9.68-.64 48.55 39.24 75.72 61.97 10.79 9.04 18.32 15.36 18.32 15.36s7.53-6.32 18.32-15.36c27.17-22.73 75.04-62.61 75.72-61.97 1.05.971 1.71 2.36 1.71 3.9z" fill="#fcb44d"/><path id="XMLID_1449_" d="m350.04 339.122c-.95.9-2.23 1.44-3.63 1.44h-180.82c-1.4 0-2.68-.54-3.63-1.44l75.72-63.35 14.9-12.46c1.98-1.66 4.86-1.66 6.84 0l14.9 12.46z" fill="#fb9927"/><path id="XMLID_1451_" d="m201.179 421.5c-4.142 0-7.5 3.358-7.5 7.5s3.358 7.5 7.5 7.5h109.643c4.142 0 7.5-3.358 7.5-7.5s-3.358-7.5-7.5-7.5z"/><path id="XMLID_1452_" d="m416.702 133.5c9.649 0 17.5-7.851 17.5-17.5v-33c0-9.649-7.851-17.5-17.5-17.5h-8v-38c0-15.164-12.336-27.5-27.5-27.5h-250.404c-15.164 0-27.5 12.336-27.5 27.5v38h-8c-9.649 0-17.5 7.851-17.5 17.5v132c0 9.649 7.851 17.5 17.5 17.5h8v91.469c0 4.142 3.358 7.5 7.5 7.5s7.5-3.358 7.5-7.5v-269.956h275.404v403.974h-275.404v-98.623c0-4.142-3.358-7.5-7.5-7.5s-7.5 3.358-7.5 7.5v125.136c0 15.164 12.336 27.5 27.5 27.5h179.838c4.142 0 7.5-3.358 7.5-7.5s-3.358-7.5-7.5-7.5h-179.838c-6.893 0-12.5-5.607-12.5-12.5v-11.513h275.404v11.513c0 6.893-5.607 12.5-12.5 12.5h-35.171c-4.142 0-7.5 3.358-7.5 7.5s3.358 7.5 7.5 7.5h35.171c15.164 0 27.5-12.336 27.5-27.5v-40.167h8c9.649 0 17.5-7.851 17.5-17.5v-33c0-9.649-7.851-17.5-17.5-17.5h-8v-154.666h8c9.649 0 17.5-7.851 17.5-17.5v-33c0-9.649-7.851-17.5-17.5-17.5h-8v-20.167zm0-53c1.378 0 2.5 1.122 2.5 2.5v33c0 1.378-1.122 2.5-2.5 2.5h-8v-38zm-321.404 137c-1.378 0-2.5-1.122-2.5-2.5v-132c0-1.378 1.122-2.5 2.5-2.5h8v137zm23-178.487v-11.513c0-6.893 5.607-12.5 12.5-12.5h250.404c6.893 0 12.5 5.607 12.5 12.5v11.513zm298.404 352.32c1.378 0 2.5 1.122 2.5 2.5v33c0 1.378-1.122 2.5-2.5 2.5h-8v-38zm0-222.666c1.378 0 2.5 1.122 2.5 2.5v33c0 1.378-1.122 2.5-2.5 2.5h-8v-38z"/><path id="XMLID_1459_" d="m256 143.719 21.722 18.446c3.157 2.681 7.89 2.295 10.572-.862 2.681-3.157 2.295-7.89-.862-10.572l-23.361-19.837c-4.677-3.952-11.465-3.951-16.155.012 0 0-90.812 77.167-91.091 77.431-2.59 2.417-4.074 5.827-4.074 9.366v117.52c0 3.559 1.501 6.988 4.053 9.345 2.379 2.253 5.5 3.495 8.787 3.495h180.82c3.287 0 6.408-1.241 8.72-3.432 2.618-2.419 4.12-5.849 4.12-9.408v-117.52c0-3.539-1.484-6.949-4.074-9.366-.28-.265-30.009-25.555-40.834-34.751-3.156-2.681-7.89-2.297-10.572.86s-2.297 7.89.86 10.572c10.823 9.194 31.781 27.012 33.385 28.377-.265.211-.534.425-.813.649-4.579 3.659-50.093 41.263-62.882 51.954l-10.084-8.437c-4.772-3.992-11.7-3.99-16.473.001l-10.083 8.436c-12.811-10.709-58.641-48.568-63.106-52.133-.202-.162-.394-.314-.589-.469 1.603-1.366 82.014-69.677 82.014-69.677zm88.25 83.9v96.886l-58.241-48.729c32.515-27.172 49.439-41.065 58.241-48.157zm-88.25 42.608 75.102 62.835h-150.204zm-30.008 5.55-58.242 48.729v-96.886c8.799 7.09 25.718 20.978 58.242 48.157z"/></svg>