<svg height="512pt" viewBox="0 0 511 512" width="512pt" xmlns="http://www.w3.org/2000/svg"><path d="m314.4375 7.574219c-3.222656 0-282.175781 0-289.570312 0-9.277344 0-16.792969 7.511719-16.792969 16.785156v463.28125c0 9.273437 7.515625 16.785156 16.792969 16.785156h289.570312c9.28125 0 16.792969-7.511719 16.792969-16.785156v-463.28125c0-9.273437-7.511719-16.785156-16.792969-16.785156zm0 0" fill="#fff5f4"/><path d="m387.691406 263.574219h-20.761718v-50.304688h20.761718zm0 0" fill="#4395fb"/><path d="m456.632812 280.664062c-53.84375-43.8125-133.011718-35.671874-176.820312 18.171876-43.808594 53.847656-35.671875 133.015624 18.175781 176.824218 53.847657 43.808594 133.011719 35.671875 176.820313-18.175781s35.671875-133.011719-18.175782-176.820313zm0 0" fill="#63a6fd"/><path d="m437.851562 459.820312c-13.109374 9.714844-27.78125 15.804688-42.816406 18.449219-36.730468 6.484375-75.671875-7.582031-99.390625-39.574219-33.4375-45.113281-23.976562-108.773437 21.125-142.210937 23.328125-17.296875 51.632813-23.113281 78.144531-18.449219 24.742188 4.34375 47.925782 17.804688 64.0625 39.585938 33.4375 45.101562 23.976563 108.773437-21.125 142.199218zm0 0" fill="#fff5f4"/><path d="m402.222656 195.65625h-49.824218c-8.804688 0-16.007813 7.203125-16.007813 16.007812 0 8.804688 7.203125 16.007813 16.007813 16.007813h49.824218c8.804688 0 16.007813-7.203125 16.007813-16.007813 0-8.804687-7.203125-16.007812-16.007813-16.007812zm0 0" fill="#63a6fd"/><path d="m391.777344 380.304688c1.328125-8.929688-5.570313-16.78125-14.546875-16.78125-11.671875 0-18.933594 13.535156-11.667969 23.339843 7.785156 10.503907 24.316406 6.210938 26.214844-6.558593zm0 0" fill="#f64346"/><path d="m60.214844 504.425781h-35.347656c-9.28125 0-16.792969-7.511719-16.792969-16.785156v-463.28125c0-9.273437 7.511719-16.785156 16.792969-16.785156h35.347656c-9.28125 0-16.796875 7.511719-16.796875 16.785156v463.28125c0 9.273437 7.515625 16.785156 16.796875 16.785156zm0 0" fill="#ebe0da"/><path d="m395.03125 478.269531c-36.726562 6.484375-75.667969-7.582031-99.390625-39.574219-33.433594-45.113281-23.972656-108.773437 21.128906-142.210937 23.328125-17.296875 51.632813-23.113281 78.140625-18.449219-15.035156 2.644532-29.699218 8.734375-42.796875 18.449219-45.101562 33.4375-54.5625 97.097656-21.125 142.210937 16.136719 21.761719 39.3125 35.234376 64.042969 39.574219zm0 0" fill="#ebe0da"/><path d="m395.265625 246.101562v-10.855468h6.957031c13.007813 0 23.582032-10.582032 23.582032-23.578125 0-13.007813-10.574219-23.589844-23.582032-23.589844h-49.824218c-5.0625 0-9.75 1.605469-13.59375 4.328125v-168.046875c0-13.433594-10.925782-24.359375-24.367188-24.359375h-289.570312c-13.441407 0-24.367188 10.925781-24.367188 24.359375v463.28125c0 13.433594 10.925781 24.359375 24.367188 24.359375h289.570312c7.269531 0 13.8125-3.203125 18.285156-8.269531 87.40625 31.039062 177.859375-34.375 177.859375-125.496094 0-67.691406-50.113281-123.230469-115.316406-132.132813zm-42.867187-42.875h49.824218c4.65625 0 8.433594 3.785157 8.433594 8.441407 0 4.644531-3.777344 8.429687-8.433594 8.429687-36.246094 0-13.878906 0-49.824218 0-4.648438 0-8.433594-3.785156-8.433594-8.429687 0-4.65625 3.785156-8.441407 8.433594-8.441407zm27.71875 32.019532v9.664062c-1.871094-.039062-3.75-.039062-5.613282 0v-9.664062zm-41.3125-4.328125c3.84375 2.722656 8.53125 4.328125 13.59375 4.328125h6.957031v10.847656c-7 .9375-13.867188 2.421875-20.550781 4.433594zm130.128906 221.78125c-62.214844 76.464843-184.777344 47.082031-206.699219-47.886719-.9375-4.070312-5.007813-6.613281-9.085937-5.675781-4.070313.949219-6.617188 5.011719-5.675782 9.089843 9.101563 39.402344 34.953125 70.996094 68.882813 88.421876-1.445313.308593 15.066406.203124-291.488281.203124-5.089844 0-9.21875-4.128906-9.21875-9.210937v-463.28125c0-5.082031 4.128906-9.210937 9.21875-9.210937h289.570312c5.089844 0 9.21875 4.128906 9.21875 9.210937v231.75c-45.898438 20.183594-78.921875 66.050781-79.609375 120.265625-.050781 4.179688 3.304687 7.613281 7.484375 7.675781 4.394531 0 7.617188-3.460937 7.664062-7.484375.914063-71.515625 64.941407-126.085937 136.070313-115.164062 90.214844 13.960937 131.160156 120.621094 73.667969 191.296875zm0 0"/><path d="m465.066406 313.109375c-35.953125-48.503906-104.300781-58.660156-152.804687-22.707031-48.5 35.949218-58.660157 104.296875-22.707031 152.804687 35.886718 48.40625 104.4375 58.554688 152.804687 22.703125 48.386719-35.867187 58.574219-104.414062 22.707031-152.800781zm-31.726562 140.632813c-41.699219 30.910156-100.738282 22.09375-131.613282-19.558594-30.96875-41.777344-22.226562-100.644532 19.554688-131.613282s100.644531-22.222656 131.613281 19.558594c30.894531 41.675782 22.121094 100.71875-19.554687 131.613282zm0 0"/><path d="m377.3125 320.996094c4.183594 0 7.570312-3.390625 7.570312-7.574219v-16.472656c0-4.183594-3.386718-7.574219-7.570312-7.574219-4.1875 0-7.574219 3.390625-7.574219 7.574219v16.472656c0 4.183594 3.386719 7.574219 7.574219 7.574219zm0 0"/><path d="m421.699219 301.273438c-3.621094-2.09375-8.253907-.851563-10.347657 2.769531l-8.234374 14.265625c-2.925782 5.070312.777343 11.363281 6.550781 11.363281 2.621093 0 5.164062-1.359375 6.566406-3.789063l8.238281-14.265624c2.089844-3.621094.847656-8.253907-2.773437-10.34375zm0 0"/><path d="m437.15625 352.347656 14.265625-8.234375c3.621094-2.09375 4.863281-6.722656 2.769531-10.347656-2.089844-3.621094-6.722656-4.863281-10.34375-2.769531l-14.265625 8.234375c-3.621093 2.089843-4.863281 6.722656-2.773437 10.34375 2.097656 3.628906 6.730468 4.863281 10.347656 2.773437zm0 0"/><path d="m458.515625 370.582031h-16.472656c-4.183594 0-7.574219 3.390625-7.574219 7.574219s3.390625 7.574219 7.574219 7.574219h16.472656c4.183594 0 7.570313-3.390625 7.570313-7.574219s-3.386719-7.574219-7.570313-7.574219zm0 0"/><path d="m451.421875 412.199219-14.265625-8.234375c-3.625-2.09375-8.253906-.851563-10.347656 2.769531-2.089844 3.625-.847656 8.257813 2.773437 10.347656l14.265625 8.234375c3.613282 2.085938 8.25.855469 10.34375-2.773437 2.09375-3.621094.851563-8.253907-2.769531-10.34375zm0 0"/><path d="m416.234375 430.429688c-2.089844-3.625-6.722656-4.863282-10.34375-2.773438-3.625 2.089844-4.863281 6.722656-2.773437 10.347656l8.234374 14.261719c2.097657 3.628906 6.730469 4.863281 10.347657 2.773437 3.621093-2.089843 4.863281-6.722656 2.773437-10.347656zm0 0"/><path d="m377.3125 435.3125c-4.1875 0-7.574219 3.390625-7.574219 7.574219v16.472656c0 4.183594 3.386719 7.574219 7.574219 7.574219 4.183594 0 7.570312-3.390625 7.570312-7.574219v-16.472656c0-4.183594-3.390624-7.574219-7.570312-7.574219zm0 0"/><path d="m348.730469 427.65625c-3.625-2.09375-8.253907-.851562-10.347657 2.769531l-8.234374 14.265625c-2.921876 5.0625.769531 11.363282 6.554687 11.363282 2.617187 0 5.164063-1.359376 6.566406-3.789063l8.234375-14.265625c2.089844-3.621094.847656-8.253906-2.773437-10.34375zm0 0"/><path d="m317.464844 403.964844-14.265625 8.234375c-6.707031 3.867187-3.90625 14.132812 3.792969 14.132812 2.691406 0 2.714843-.402343 18.046874-9.25 3.621094-2.089843 4.863282-6.722656 2.769532-10.347656-2.089844-3.621094-6.722656-4.863281-10.34375-2.769531zm0 0"/><path d="m320.152344 378.15625c0-4.183594-3.390625-7.574219-7.574219-7.574219h-16.472656c-4.183594 0-7.574219 3.390625-7.574219 7.574219s3.390625 7.574219 7.574219 7.574219h16.472656c4.183594 0 7.574219-3.394531 7.574219-7.574219zm0 0"/><path d="m303.199219 344.113281c15.507812 8.953125 15.390625 9.25 18.042969 9.25 7.71875 0 10.492187-10.265625 3.796874-14.132812l-14.265624-8.234375c-3.621094-2.09375-8.257813-.851563-10.347657 2.769531-2.089843 3.625-.847656 8.253906 2.773438 10.347656zm0 0"/><path d="m343.269531 304.042969c-2.089843-3.621094-6.722656-4.859375-10.347656-2.769531-3.621094 2.089843-4.863281 6.722656-2.773437 10.34375l8.234374 14.265624c2.089844 3.617188 6.71875 4.863282 10.347657 2.773438 3.621093-2.09375 4.863281-6.722656 2.773437-10.347656zm0 0"/><path d="m404 352.167969c2.257812-3.523438 1.230469-8.207031-2.292969-10.464844-3.523437-2.257813-8.207031-1.230469-10.460937 2.292969l-8.164063 12.738281c-13.285156-3.519531-25.835937 5.394531-27.730469 18.160156-2.914062 19.59375 19.390626 32.789063 35.179688 21.09375 9.597656-7.117187 11.910156-20.59375 4.957031-30.535156zm-22.488281 31.648437c-5.050781 3.746094-12.097657-.488281-11.175781-6.699218.546874-3.667969 3.679687-6.019532 6.894531-6.019532 6.949219 0 9.691406 8.710938 4.28125 12.71875zm0 0"/><path d="m54.324219 65.859375h230.65625c4.183593 0 7.574219-3.390625 7.574219-7.574219s-3.390626-7.574218-7.574219-7.574218h-230.65625c-4.183594 0-7.574219 3.390624-7.574219 7.574218s3.390625 7.574219 7.574219 7.574219zm0 0"/><path d="m153.289062 88.542969c-4.183593 0-7.574218 3.390625-7.574218 7.574219 0 4.183593 3.390625 7.574218 7.574218 7.574218h68.671876c4.183593 0 7.574218-3.390625 7.574218-7.574218 0-4.183594-3.390625-7.574219-7.574218-7.574219zm0 0"/><path d="m54.324219 103.691406h68.671875c4.179687 0 7.570312-3.390625 7.570312-7.574218 0-4.183594-3.390625-7.574219-7.570312-7.574219h-68.671875c-4.183594 0-7.574219 3.390625-7.574219 7.574219 0 4.183593 3.390625 7.574218 7.574219 7.574218zm0 0"/><path d="m231.050781 169.164062h-176.726562c-4.183594 0-7.574219 3.390626-7.574219 7.574219 0 4.183594 3.390625 7.574219 7.574219 7.574219h176.726562c4.179688 0 7.574219-3.390625 7.574219-7.574219 0-4.183593-3.394531-7.574219-7.574219-7.574219zm0 0"/><path d="m284.980469 169.164062h-23.632813c-4.183594 0-7.574218 3.390626-7.574218 7.574219 0 4.183594 3.390624 7.574219 7.574218 7.574219h23.632813c4.183593 0 7.574219-3.390625 7.574219-7.574219 0-4.183593-3.390626-7.574219-7.574219-7.574219zm0 0"/><path d="m54.324219 222.144531h65.742187c4.183594 0 7.574219-3.390625 7.574219-7.574219 0-4.183593-3.390625-7.574218-7.574219-7.574218h-65.742187c-4.183594 0-7.574219 3.390625-7.574219 7.574218 0 4.183594 3.390625 7.574219 7.574219 7.574219zm0 0"/><path d="m219.414062 287.621094h-165.089843c-4.183594 0-7.574219 3.390625-7.574219 7.574218 0 4.183594 3.390625 7.574219 7.574219 7.574219h165.089843c4.183594 0 7.574219-3.390625 7.574219-7.574219 0-4.183593-3.390625-7.574218-7.574219-7.574218zm0 0"/><path d="m54.324219 340.601562h60.589843c4.183594 0 7.574219-3.390624 7.574219-7.574218s-3.390625-7.574219-7.574219-7.574219h-60.589843c-4.183594 0-7.574219 3.390625-7.574219 7.574219s3.390625 7.574218 7.574219 7.574218zm0 0"/><path d="m205.804688 325.453125h-60.59375c-4.183594 0-7.574219 3.390625-7.574219 7.574219s3.390625 7.574218 7.574219 7.574218h60.59375c4.179687 0 7.570312-3.390624 7.570312-7.574218s-3.390625-7.574219-7.570312-7.574219zm0 0"/><path d="m170.308594 373.902344-81.234375 73.925781-27.402344-40.75c-2.335937-3.472656-7.042969-4.390625-10.511719-2.058594-3.472656 2.335938-4.394531 7.042969-2.058594 10.511719l27.746094 41.257812c4.984375 7.40625 15.386719 8.65625 21.972656 2.652344l81.6875-74.335937c3.089844-2.816407 3.316407-7.605469.503907-10.703125-2.820313-3.09375-7.609375-3.316406-10.703125-.5zm0 0"/></svg>