<svg id="Layer_1" enable-background="new 0 0 512.002 512.002" height="512" viewBox="0 0 512.002 512.002" width="512" xmlns="http://www.w3.org/2000/svg"><g><g clip-rule="evenodd" fill-rule="evenodd"><path d="m217.182 323.104 100.502-100.502 34.346-34.346 63.091-63.091c29.29 35.58 46.88 81.154 46.88 130.837 0 113.771-92.23 206.001-206.001 206.001-49.683 0-95.256-17.59-130.837-46.88l63.093-63.093zm68.967-125.535 37.597-37.597 63.092-63.091c-35.58-29.291-81.154-46.881-130.837-46.881-113.771 0-206.001 92.23-206.001 206.001 0 49.683 17.59 95.257 46.88 130.836l63.093-63.093 28.925-28.925zm215.853 58.432c0-135.863-110.138-246.001-246.001-246.001s-246.001 110.138-246.001 246.001 110.138 246.001 246.001 246.001 246.001-110.138 246.001-246.001z" fill="#ff5d7d"/><path d="m208.907 219.515c14.52-16.041 6.652-35.698 32.697-41.692 26.071-6 36.373 17.338 44.545 19.746l37.597-37.597c-19.146-13.531-42.517-21.483-67.745-21.483-64.9 0-117.512 52.612-117.512 117.512 0 25.228 7.953 48.597 21.484 67.743l28.925-28.925c-6.618-11.415-10.409-24.674-10.409-38.818 0-16.082 21.681-26.834 30.418-36.486z" fill="#b8ecbc"/><path d="m241.604 177.823c-26.045 5.994-18.177 25.651-32.697 41.692-8.737 9.652-30.418 20.403-30.418 36.486 0 14.145 3.791 27.403 10.409 38.818l97.25-97.251c-8.171-2.407-18.473-25.745-44.544-19.745z" fill="#eaf5bc"/><path d="m317.684 222.602-100.502 100.502c11.415 6.619 24.674 10.409 38.819 10.409 25.525 0 36.469-15.838 48.008-34.875 7.814-12.89 28.004-22.353 28.004-39.637 0-13.402-9.824-27.489-14.329-36.399z" fill="#eaf5bc"/><path d="m317.684 222.602c4.505 8.91 14.329 22.997 14.329 36.399 0 17.284-20.191 26.747-28.004 39.637-11.539 19.037-22.483 34.875-48.008 34.875-14.145 0-27.404-3.79-38.819-10.409l-28.925 28.925c19.145 13.532 42.515 21.484 67.743 21.484 64.9 0 117.512-52.612 117.512-117.512 0-25.228-7.951-48.599-21.483-67.745z" fill="#b8ecbc"/><g fill="#fff"><path d="m352.03 188.256c13.531 19.146 21.483 42.517 21.483 67.745 0 64.9-52.612 117.512-117.512 117.512-25.228 0-48.598-7.952-67.743-21.484l-63.093 63.093c35.58 29.29 81.154 46.88 130.837 46.88 113.771 0 206.001-92.23 206.001-206.001 0-49.683-17.59-95.256-46.88-130.837z"/><path d="m323.746 159.972 63.092-63.091c-35.58-29.291-81.154-46.881-130.837-46.881-113.771 0-206.001 92.23-206.001 206.001 0 49.683 17.59 95.257 46.88 130.836l63.093-63.093c-13.531-19.146-21.484-42.515-21.484-67.743 0-64.9 52.612-117.512 117.512-117.512 25.228 0 48.599 7.951 67.745 21.483z"/></g></g><g><path d="m256.001 0c-141.159 0-256.001 114.842-256.001 256.001s114.842 256 256.001 256 256.001-114.841 256.001-256-114.842-256.001-256.001-256.001zm0 492.002c-130.131 0-236.001-105.87-236.001-236.001s105.87-236.001 236.001-236.001 236.001 105.87 236.001 236.001-105.87 236.001-236.001 236.001z"/><path d="m396.825 96.397c-.136-2.817-1.455-5.445-3.633-7.237-38.507-31.701-87.229-49.16-137.191-49.16-41.231 0-81.327 11.666-115.951 33.736-4.657 2.969-6.026 9.15-3.058 13.808 2.97 4.658 9.152 6.026 13.808 3.058 31.407-20.02 67.785-30.602 105.201-30.602 41.639 0 82.324 13.36 115.751 37.822l-49.335 49.335c-16.632-10.18-35.222-16.335-54.635-18.11.622-1.781 1.047-3.87 1.047-6.317 0-6.813-3.268-10.892-5.023-13.084-.144-.179-.313-.39-.46-.581.147-.191.316-.402.46-.581 1.756-2.192 5.023-6.271 5.023-13.084 0-5.523-4.478-9.971-10.001-9.971-5.427 0-9.845 4.35-9.996 9.741-.173.233-.431.555-.636.811-1.756 2.192-5.023 6.271-5.023 13.084s3.268 10.892 5.023 13.083c.143.179.313.39.46.581-.147.19-.316.401-.46.581-.994 1.241-2.471 3.088-3.567 5.692-14.838 1.318-28.953 5.185-41.902 11.165-.352-1.854-1.028-3.876-2.252-5.995-3.405-5.901-8.276-7.8-10.893-8.82-.213-.083-.465-.181-.688-.272.033-.239.074-.506.108-.733.425-2.776 1.215-7.943-2.191-13.844-2.762-4.782-8.865-6.396-13.646-3.634-4.699 2.713-6.35 8.689-3.787 13.434-.033.289-.095.696-.145 1.02-.425 2.776-1.215 7.943 2.19 13.842 3.406 5.901 8.277 7.8 10.894 8.821.214.083.466.181.688.272-.033.239-.073.507-.108.734-.242 1.58-.599 3.936-.236 6.76-11.881 8.383-22.274 18.74-30.691 30.595-1.235-1.438-2.838-2.86-4.971-4.091-5.898-3.406-11.067-2.617-13.842-2.191-.227.035-.494.076-.733.108-.091-.224-.189-.476-.272-.689-1.021-2.616-2.919-7.486-8.819-10.893-4.781-2.761-10.874-1.107-13.636 3.675-2.713 4.7-1.155 10.701 3.438 13.528.116.266.266.65.385.956 1.021 2.617 2.919 7.487 8.818 10.892 5.898 3.406 11.067 2.617 13.844 2.192.227-.035.494-.076.732-.108.092.223.189.475.272.688.579 1.483 1.441 3.691 3.154 5.946-6.021 12.93-9.934 27.029-11.299 41.857-1.779-.62-3.866-1.044-6.309-1.044-6.813 0-10.893 3.268-13.084 5.024-.179.143-.39.312-.58.46-.19-.148-.401-.317-.581-.46-2.191-1.756-6.271-5.024-13.084-5.024-5.522 0-9.971 4.478-9.971 10.001 0 5.426 4.35 9.844 9.74 9.996.233.173.556.431.812.636 2.191 1.756 6.271 5.024 13.084 5.024s10.893-3.268 13.084-5.024c.179-.143.39-.312.58-.46.19.148.401.317.58.46 1.242.995 3.092 2.474 5.699 3.57 1.726 19.559 7.898 38.292 18.15 55.041l-49.336 49.336c-24.465-33.427-37.825-74.113-37.825-115.752 0-37.418 10.581-73.794 30.6-105.196 2.969-4.657 1.6-10.839-3.057-13.808-4.659-2.971-10.84-1.6-13.809 3.057-22.069 34.62-33.734 74.713-33.734 115.947 0 49.961 17.458 98.684 49.159 137.192 1.793 2.177 4.421 3.496 7.237 3.632.162.008.323.012.483.012 2.646 0 5.191-1.049 7.071-2.929l289.957-289.958c1.995-1.993 3.055-4.736 2.918-7.553zm-248.336 159.604c0-59.282 48.229-107.512 107.512-107.512 18.304 0 35.997 4.572 51.797 13.287l-22.565 22.565c-.091-.089-.185-.181-.272-.266-7.663-7.495-21.93-21.443-45.6-15.997-21.557 4.96-26.221 18.447-29.969 29.284-1.932 5.588-3.757 10.866-7.899 15.442-1.988 2.197-5.315 4.854-8.837 7.666-10.768 8.597-24.167 19.297-24.167 35.532 0 12.786 2.814 25.41 8.166 36.918l-14.878 14.878c-8.715-15.8-13.288-33.493-13.288-51.797zm43.526 21.559c-2.323-6.91-3.526-14.199-3.526-21.559 0-6.611 9.229-13.981 16.646-19.903 4.171-3.331 8.111-6.477 11.186-9.873 6.882-7.602 9.705-15.767 11.974-22.328 3.289-9.512 4.791-13.854 15.551-16.33 13.019-2.992 20.193 4.02 27.131 10.805.038.037.076.074.114.111z"/><path d="m422.843 118.809c-1.792-2.177-4.421-3.497-7.237-3.633-2.824-.136-5.561.923-7.555 2.917l-289.957 289.958c-1.994 1.994-3.054 4.738-2.917 7.554.136 2.817 1.455 5.445 3.633 7.238 38.509 31.701 87.231 49.159 137.191 49.159 57.696 0 111.938-22.468 152.736-63.265 40.797-40.797 63.265-95.04 63.265-152.735 0-49.96-17.458-98.683-49.159-137.193zm-59.33 137.192c0 59.282-48.229 107.512-107.512 107.512-18.289 0-35.99-4.579-51.792-13.293l14.874-14.873c11.507 5.352 24.134 8.166 36.918 8.166 32.501 0 45.841-22.008 56.56-39.691 2.119-3.496 5.979-7.163 10.066-11.046 8.637-8.207 19.387-18.419 19.387-33.775 0-12.99-6.804-25.407-11.967-34.619l20.179-20.179c8.714 15.8 13.287 33.494 13.287 51.798zm-48.193-16.892c3.47 6.512 6.694 13.675 6.694 19.892 0 6.314-4.973 11.494-13.163 19.275-4.86 4.618-9.888 9.394-13.394 15.178-11.336 18.703-19.648 30.059-39.456 30.059-7.359 0-14.648-1.205-21.558-3.527zm-59.319 212.893c-41.638 0-82.323-13.36-115.751-37.823l49.336-49.336c16.632 10.177 35.231 16.335 54.634 18.111-.622 1.781-1.047 3.871-1.047 6.318 0 6.813 3.268 10.893 5.023 13.084.144.179.313.39.46.581-.147.19-.316.401-.46.58-1.756 2.191-5.023 6.271-5.023 13.084 0 5.523 4.478 9.971 10.001 9.971 5.427 0 9.845-4.35 9.996-9.741.173-.233.431-.555.636-.811 1.756-2.191 5.023-6.271 5.023-13.083s-3.268-10.892-5.023-13.083c-.144-.179-.313-.391-.46-.581.147-.191.316-.402.46-.581.994-1.241 2.472-3.088 3.567-5.692 14.838-1.318 28.952-5.185 41.902-11.164.352 1.854 1.029 3.877 2.252 5.997 3.407 5.899 8.276 7.799 10.893 8.819.214.083.466.181.688.272-.032.239-.073.506-.108.732-.424 2.776-1.215 7.942 2.191 13.842 1.848 3.202 5.192 4.984 8.638 4.984 1.701 0 3.427-.435 5.008-1.348 4.7-2.713 6.352-8.689 3.788-13.434.033-.289.096-.696.146-1.021.424-2.776 1.215-7.942-2.191-13.844-3.407-5.899-8.276-7.799-10.893-8.819-.214-.083-.466-.182-.689-.272.033-.239.074-.506.108-.733.242-1.58.599-3.937.236-6.761 11.881-8.383 22.274-18.741 30.692-30.595 1.235 1.438 2.838 2.86 4.97 4.091 5.899 3.406 11.066 2.615 13.842 2.191.228-.035.494-.076.733-.108.091.224.189.476.272.689 1.021 2.616 2.92 7.486 8.819 10.893 1.571.907 3.282 1.338 4.972 1.337 3.453 0 6.81-1.801 8.664-5.012 2.713-4.7 1.154-10.7-3.438-13.528-.115-.267-.265-.651-.384-.956-1.021-2.616-2.92-7.486-8.819-10.893-5.901-3.407-11.067-2.617-13.844-2.192-.227.035-.493.076-.732.108-.091-.223-.189-.476-.272-.689-.579-1.483-1.442-3.691-3.154-5.945 6.021-12.93 9.934-27.029 11.3-41.857 1.779.62 3.866 1.044 6.309 1.044 6.813 0 10.893-3.268 13.084-5.024.18-.143.391-.312.581-.46.19.148.401.317.58.46 2.191 1.756 6.271 5.024 13.084 5.024 5.522 0 9.972-4.478 9.972-10.001 0-5.426-4.351-9.844-9.741-9.996-.233-.173-.555-.431-.811-.636-2.191-1.756-6.271-5.024-13.084-5.024s-10.893 3.268-13.084 5.024c-.18.143-.391.312-.581.46-.19-.148-.401-.317-.58-.46-1.242-.995-3.091-2.474-5.699-3.571-1.726-19.56-7.897-38.294-18.148-55.042l49.334-49.334c24.462 33.429 37.822 74.115 37.822 115.752.001 108.076-87.925 196.002-196 196.002z"/><path d="m110.337 120.337c5.522 0 10-4.477 10-10s-4.478-10-10-10h-.008c-5.522 0-9.996 4.477-9.996 10s4.481 10 10.004 10z"/></g></g></svg>