<svg height="512pt" viewBox="0 0 512 512" width="512pt" xmlns="http://www.w3.org/2000/svg"><path d="m256 10c132.550781 0 246 113.449219 246 246s-113.449219 246-246 246-246-113.449219-246-246 113.449219-246 246-246zm0 0" fill="#ffd89b"/><path d="m256 446c-101.386719 0-190-88.285156-190-190 0-101.386719 88.285156-190 190-190 101.386719 0 190 88.285156 190 190 0 101.386719-88.285156 190-190 190zm0 0" fill="#ffbe52"/><path d="m66.300781 265.988281c5.378907-.160156 9.699219-4.566406 9.699219-9.988281s-4.320312-9.828125-9.699219-9.988281c-.101562-.011719-.199219-.011719-.300781-.011719-5.519531 0-10 4.480469-10 10s4.480469 10 10 10c.101562 0 .199219 0 .300781-.011719zm0 0"/><path d="m256 0c-138.011719 0-256 117.816406-256 256 0 137.980469 117.800781 256 256 256 137.980469 0 256-117.800781 256-256 0-138.011719-117.816406-256-256-256zm0 492c-127.925781 0-236-108.074219-236-236s108.074219-236 236-236 236 108.074219 236 236-108.074219 236-236 236zm0 0"/><path d="m256 56c-97.929688 0-176.675781 69.691406-195.589844 158.128906-1.152344 5.402344 2.289063 10.714844 7.6875 11.871094 5.40625 1.15625 10.714844-2.289062 11.871094-7.6875 17.636719-82.460938 91.667969-142.3125 176.03125-142.3125 99.253906 0 180 80.746094 180 180s-80.746094 180-180 180c-84.363281 0-158.394531-59.851562-176.03125-142.3125-1.15625-5.398438-6.472656-8.84375-11.871094-7.6875-5.398437 1.15625-8.839844 6.46875-7.6875 11.871094 19.570313 91.511718 101.042969 158.128906 195.589844 158.128906 110.28125 0 200-89.71875 200-200s-89.71875-200-200-200zm0 0"/><path d="m166 216c0 5.523438 4.476562 9.988281 10 9.988281h109.003906c-4.5625 22.574219-24.550781 40.011719-49.003906 40.011719h-60c-4.042969 0-7.691406 2.4375-9.238281 6.171875-1.546875 3.738281-.691407 8.039063 2.167969 10.898437l120 120c3.90625 3.90625 10.234374 3.90625 14.140624 0s3.90625-10.234374 0-14.140624l-102.929687-102.929688h35.859375c35.609375 0 64.507812-26.390625 69.285156-60h30.714844c5.523438 0 10-4.476562 10-10s-4.476562-10-10-10h-30.726562c-2.238282-15.566406-9.613282-29.492188-20.351563-40h51.078125c5.523438 0 10-4.476562 10-10s-4.476562-10-10-10h-160c-5.523438 0-10 4.476562-10 10s4.476562 10 10 10h60c24.144531 0 44.347656 17.203125 48.992188 40h-108.992188c-5.523438 0-10 4.476562-10 10zm0 0"/></svg>