<svg height="512pt" viewBox="0 -2 512.00078 512" width="512pt" xmlns="http://www.w3.org/2000/svg"><path d="m482.742188 314.648438-90.132813-68.261719h63.175781l37.710938 58.257812c4.542968 7.007813-4.101563 15.039063-10.753906 10.003907zm0 0" fill="#81b8fd"/><path d="m270.617188 253.09375h196.003906c20.898437 0 37.84375-16.945312 37.84375-37.84375v-169.867188c0-20.902343-16.945313-37.847656-37.84375-37.847656h-196.003906c-20.898438 0-37.84375 16.945313-37.84375 37.847656v169.867188c0 20.898438 16.945312 37.84375 37.84375 37.84375zm0 0" fill="#c0dbff"/><path d="m282.039062 199.066406v-86.394531c0-5.953125 4.828126-10.777344 10.777344-10.777344h24.101563c7.015625 0 12.753906 5.738281 12.753906 12.75v82.449219c0 7.015625-5.738281 12.753906-12.753906 12.753906h-24.101563c-5.949218 0-10.777344-4.828125-10.777344-10.78125zm0 0" fill="#ff50b5"/><path d="m455.199219 130.636719v46.652343c0 20.0625-16.414063 36.476563-36.472657 36.476563h-71.878906c-9.449218 0-17.175781-7.730469-17.175781-17.175781v-79.070313c0-9.445312 7.730469-17.171875 17.175781-17.171875h15.652344c1.515625 0 2.949219-.675781 3.910156-1.84375l36.84375-44.480468c6.324219-7.679688 17.566406-9.527344 25.722656-3.828126 9.125 6.375 10.738282 19.152344 3.796876 27.585938l-11.816407 14.339844c-2.652343 3.316406-.292969 8.226562 3.953125 8.226562 16.726563-.003906 30.289063 13.558594 30.289063 30.289063zm0 0" fill="#ffe4c2"/><path d="m258.933594 399.007812c-47.914063-7.046874-59.644532-62.742187-59.644532-62.742187h-129.382812s-11.730469 55.695313-59.644531 62.742187c-2.3125.339844-3.503907 2.957032-2.242188 4.925782 5.574219 8.679687 19.65625 26.902344 37.550781 22.753906 10.039063-2.328125 20.355469-3.234375 30.664063-3.234375h116.726563c10.304687 0 20.625.90625 30.664062 3.234375 17.890625 4.148438 31.976562-14.074219 37.546875-22.753906 1.261719-1.96875.070313-4.585938-2.238281-4.925782zm0 0" fill="#ff7c48"/><path d="m238.34375 481.683594c0 10.457031-8.472656 18.933594-18.933594 18.933594h-169.621094c-5.222656 0-9.964843-2.121094-13.386718-5.554688-3.433594-3.421875-5.542969-8.15625-5.542969-13.378906 0-26.5 11.914063-50.203125 30.671875-66.070313 6.863281-5.804687 14.632812-10.558593 23.070312-14.007812 10.101563-4.136719 21.15625-6.410157 32.746094-6.410157h34.507813c11.585937 0 22.644531 2.285157 32.746093 6.410157 8.4375 3.449219 16.207032 8.203125 23.070313 14.015625 1.847656 1.554687 3.632813 3.191406 5.339844 4.90625 15.65625 15.65625 25.332031 37.277344 25.332031 61.15625zm0 0" fill="#bee299"/><path d="m151.085938 395.195312c-11.589844 0-22.644532 2.273438-32.746094 6.410157-8.4375 3.449219-16.207032 8.203125-23.070313 14.007812-18.757812 15.867188-30.671875 39.570313-30.671875 66.070313 0 5.222656 2.109375 9.957031 5.542969 13.378906 3.421875 3.433594 8.164063 5.554688 13.390625 5.554688h-33.742188c-5.222656 0-9.964843-2.121094-13.386718-5.554688-3.433594-3.421875-5.542969-8.15625-5.542969-13.378906 0-26.5 11.914063-50.203125 30.671875-66.070313 6.863281-5.804687 14.632812-10.558593 23.070312-14.007812 10.101563-4.136719 21.15625-6.410157 32.746094-6.410157zm0 0" fill="#aedb81"/><path d="m182.816406 400.902344s-.003906 0-.007812 0c-5.683594-2.179688-11.65625-3.785156-17.84375-4.71875-2.882813-.441406-5.8125-.738282-8.789063-.878906v19.628906l-19.234375 20.726562c-.007812.007813-.011718.019532-.019531.027344-1.261719 2.089844-4.320313 2.058594-5.523437-.078125l-18.378907-20.679687v-19.625c-3.558593.171874-7.0625.5625-10.5 1.160156-5.59375.964844-11.011719 2.472656-16.183593 4.460937 0 0-.007813.003907-.011719.003907-8.949219 4.929687-16.65625 14.011718-16.460938 30.691406.039063 3.25 4.09375 4.722656 6.460938 2.550781l15.730469-11.359375c1.402343-.730469 3.050781-.78125 4.492187-.132812l33.636719 14.644531c2.316406 1.816406 5.570312 1.835937 7.910156.050781l34.5625-14.695312c1.441406-.648438 3.089844-.597657 4.488281.132812l15.734375 11.359375c2.359375 2.171875 6.421875.699219 6.460938-2.550781.195312-16.710938-7.546875-25.792969-16.523438-30.71875zm0 0" fill="#8ecb51"/><path d="m113.019531 368.5625v46.367188l18.382813 20.683593c1.203125 2.132813 4.257812 2.160157 5.523437.078125 0-.007812.007813-.019531.015625-.027344l19.234375-20.734374v-46.367188c-3.605469-.171875-39.761719-.160156-43.15625 0zm0 0" fill="#f2d1a5"/><path d="m220.054688 314.476562c0 13.472657-10.917969 24.390626-24.390626 24.390626-13.46875 0-24.390624-10.917969-24.390624-24.390626 0-13.46875 10.921874-24.390624 24.390624-24.390624 13.472657 0 24.390626 10.921874 24.390626 24.390624zm0 0" fill="#f2d1a5"/><path d="m178.363281 197.503906h-87.523437c-11.5625 0-20.933594 9.371094-20.933594 20.933594v113.414062c0 35.019532 48.667969 63.410157 64.695312 63.414063 16.027344-.003906 64.695313-28.394531 64.695313-63.414063v-113.414062c0-11.5625-9.375-20.933594-20.933594-20.933594zm0 0" fill="#ffe4c2"/><path d="m151.472656 390.277344c-6.816406 3.210937-12.859375 4.984375-16.871094 4.984375-16.03125 0-64.691406-28.386719-64.691406-63.410157v-113.410156c0-11.570312 9.371094-20.9375 20.925782-20.9375h33.742187c-11.558594 0-20.929687 9.367188-20.929687 20.9375v113.410156c0 26.269532 27.367187 48.808594 47.824218 58.425782zm0 0" fill="#f2d1a5"/><path d="m147.171875 253.984375c6.136719-3.972656 10.730469-9.925781 13.273437-16.777344l1.722657-4.648437c1.703125-4.585938 8.109375-4.792969 10.101562-.328125l6.320313 14.144531c4.585937 10.257812 14.773437 16.867188 26.011718 16.867188 3.488282 0 6.3125-2.957032 6.3125-6.605469v-42.386719c0-28.488281-22.480468-50.757812-49.070312-50.757812h-54.480469c-26.292969 0-48.300781 21.6875-49.046875 49.226562-.050781 2.007812-.015625-1.625-.027344 43.917969v.007812c.003907 7.800781 6.089844 14.246094 13.882813 14.695313 17.519531 1.019531 48.566406-.238282 75-17.355469zm0 0" fill="#ff956a"/><path d="m210.917969 237v19.636719c0 3.644531-2.824219 6.605469-6.316407 6.605469-11.238281 0-21.425781-6.605469-26.007812-16.871094l-6.320312-14.140625c-1.996094-4.460938-8.40625-4.261719-10.105469.328125l-1.722657 4.648437c-2.546874 6.851563-7.136718 12.808594-13.273437 16.78125-26.433594 17.121094-57.484375 18.375-75 17.351563-3.894531-.222656-7.363281-1.945313-9.859375-4.589844-2.496094-2.648438-4.019531-6.207031-4.019531-10.109375.007812-45.539063-.03125-41.914063.019531-43.917969.199219-7.347656 1.917969-14.277344 4.820312-20.496094 0 5.015626.007813 15.480469 0 38.359376.007813 3.902343 1.53125 7.46875 4.019532 10.109374 2.496094 2.640626 5.964844 4.359376 9.859375 4.589844 17.527343 1.023438 48.574219-.230468 75.007812-17.351562 6.128907-3.972656 10.726563-9.929688 13.273438-16.78125l1.726562-4.648438c1.695313-4.589844 8.105469-4.789062 10.101563-.328125l6.3125 14.140625c4.589844 10.257813 14.777344 16.871094 26.019531 16.871094.5-.003906.992187-.058594 1.464844-.1875zm0 0" fill="#ff7c48"/><path d="m305.796875 253.09375h-35.179687c-20.894532 0-37.84375-16.949219-37.84375-37.84375v-169.867188c0-20.898437 16.949218-37.84375 37.84375-37.84375h35.179687c-20.894531 0-37.84375 16.945313-37.84375 37.84375v169.867188c0 20.894531 16.949219 37.84375 37.84375 37.84375zm0 0" fill="#81b8fd"/><path d="m453.582031 188.011719c-4.613281 14.875-18.523437 25.75-34.859375 25.75h-71.875c-9.449218 0-17.179687-7.730469-17.179687-17.167969v-79.074219c0-9.449219 7.730469-17.175781 17.179687-17.175781h14.734375v57.964844c0 16.402344 13.296875 29.703125 29.703125 29.703125zm0 0" fill="#f2d1a5"/><path d="m97.929688 314.472656c0 13.472656-10.921876 24.390625-24.390626 24.390625-13.472656 0-24.390624-10.917969-24.390624-24.390625 0-13.46875 10.917968-24.390625 24.390624-24.390625 13.46875 0 24.390626 10.921875 24.390626 24.390625zm0 0" fill="#f2d1a5"/><path d="m168.566406 469.410156c-4.164062 0-7.539062 3.375-7.539062 7.539063 0 4.160156 3.375 7.535156 7.539062 7.535156h41.1875c4.167969 0 7.539063-3.375 7.539063-7.535156 0-4.164063-3.371094-7.539063-7.539063-7.539063zm0 0"/><path d="m100.667969 469.410156h-41.191407c-4.164062 0-7.535156 3.375-7.535156 7.539063 0 4.160156 3.371094 7.535156 7.535156 7.535156h41.191407c4.164062 0 7.539062-3.375 7.539062-7.535156 0-4.164063-3.375-7.539063-7.539062-7.539063zm0 0"/><path d="m512 215.25v-169.867188c0-25.027343-20.351562-45.382812-45.382812-45.382812h-196c-25.027344 0-45.378907 20.355469-45.378907 45.382812v169.867188c0 25.027344 20.351563 45.382812 45.378907 45.382812h128.304687l79.265625 60.023438c13.398438 10.109375 30.734375-6.074219 21.640625-20.113281l-26.191406-40.453125c21.710937-3.378906 38.363281-22.195313 38.363281-44.839844zm-25.078125 93.113281-63.019531-47.730469h32.121094zm10-93.113281c0 16.703125-13.585937 30.304688-30.304687 30.304688-9.304688 0-186.65625 0-196 0-16.703126 0-30.304688-13.601563-30.304688-30.304688v-169.867188c0-16.714843 13.601562-30.304687 30.304688-30.304687h196c16.71875 0 30.304687 13.589844 30.304687 30.304687zm0 0"/><path d="m430.84375 92.761719 8.140625-9.875c9.945313-12.082031 7.511719-30.261719-5.398437-39.285157-11.453126-8-27.5-5.667968-36.523438 5.292969l-35.960938 43.410157c-14.03125 0-22.226562-1.371094-30.933593 6.328124-7.257813-6.015624-11.945313-4.78125-37.351563-4.78125-10.375 0-18.820312 8.441407-18.820312 18.820313v86.394531c0 10.378906 8.445312 18.820313 18.820312 18.820313 25.523438 0 29.214844.96875 35.960938-3.734375 4.585937 4.714844 10.988281 7.652344 18.070312 7.652344h71.878906c24.546876 0 44.515626-19.96875 44.515626-44.515626v-46.652343c0-19.121094-14.066407-35.011719-32.398438-37.875zm-109.210938 103.828125c0 3.425781-2.363281 5.214844-4.714843 5.214844h-24.101563c-1.507812 0-2.738281-1.226563-2.738281-2.738282v-86.394531c0-1.511719 1.230469-2.738281 2.738281-2.738281h24.101563c2.554687 0 4.714843 2.15625 4.714843 4.710937zm125.527344-19.300782c0 15.679688-12.753906 28.433594-28.433594 28.433594h-71.878906c-5.035156 0-9.132812-4.097656-9.132812-9.132812v-79.070313c0-5.035156 4.097656-9.132812 9.132812-9.132812h15.652344c3.929688 0 7.621094-1.738281 10.101562-4.757813l36.863282-44.496094c3.742187-4.542968 10.289062-5.574218 14.910156-2.347656 5.261719 3.675782 6.179688 11.042969 2.195312 15.878906-.117187.140626-11.777343 14.289063-11.890624 14.433594-6.867188 8.582032-.75 21.289063 10.234374 21.289063 12.265626 0 22.246094 9.980469 22.246094 22.25zm0 0"/><path d="m114.175781 334.6875c0 11.269531 9.167969 20.441406 20.441407 20.441406 11.269531 0 20.4375-9.171875 20.4375-20.441406 0-4.164062-3.371094-7.539062-7.535157-7.539062-4.164062 0-7.539062 3.375-7.539062 7.539062 0 2.957031-2.40625 5.363281-5.363281 5.363281-2.957032 0-5.363282-2.40625-5.363282-5.363281 0-4.164062-3.375-7.539062-7.539062-7.539062-4.164063 0-7.539063 3.375-7.539063 7.539062zm0 0"/><path d="m175.429688 308.492188c0 4.234374-3.429688 7.664062-7.664063 7.664062-4.230469 0-7.664063-3.429688-7.664063-7.664062 0-4.230469 3.433594-7.664063 7.664063-7.664063 4.234375 0 7.664063 3.433594 7.664063 7.664063zm0 0"/><path d="m109.132812 308.492188c0 4.234374-3.433593 7.664062-7.664062 7.664062-4.234375 0-7.664062-3.429688-7.664062-7.664062 0-4.230469 3.429687-7.664063 7.664062-7.664063 4.230469 0 7.664062 3.433594 7.664062 7.664063zm0 0"/><path d="m158.964844 298.441406c5.15625-1.050781 15.058594-1.644531 19.671875 1.257813 1.246093.785156 2.632812 1.15625 4.003906 1.15625 7.535156 0 10.410156-9.902344 4.019531-13.921875-11.222656-7.054688-28.792968-3.664063-30.757812-3.253906-4.074219.847656-6.679688 4.832031-5.839844 8.902343.839844 4.074219 4.828125 6.691407 8.902344 5.859375zm0 0"/><path d="m86.59375 300.855469c1.367188 0 2.757812-.371094 4.003906-1.15625 4.609375-2.898438 14.511719-2.308594 19.667969-1.257813 4.074219.84375 8.058594-1.769531 8.90625-5.84375.851563-4.074218-1.765625-8.066406-5.839844-8.917968-1.96875-.410157-19.539062-3.800782-30.761719 3.253906-6.386718 4.019531-3.511718 13.921875 4.023438 13.921875zm0 0"/><path d="m260.03125 391.453125c-34.710938-5.113281-48.179688-35.871094-52.078125-47.550781 11.527344-4.816406 19.640625-16.214844 19.640625-29.460938 0-13.667968-8.644531-25.371094-20.757812-29.902344v-14.023437c6.585937-1.09375 11.621093-6.933594 11.621093-13.960937v-42.375c0-32.144532-25.390625-58.289063-56.597656-58.289063-59.515625 0-57.253906-.199219-62.652344.605469-4.121093.621094-6.953125 4.460937-6.332031 8.574218.613281 4.121094 4.472656 6.964844 8.574219 6.339844 3.9375-.609375 1.339843-.441406 60.410156-.441406 18.894531 0 34.886719 13.199219 39.890625 31.21875 2.113281 7.550781 1.628906 8.308594 1.628906 53.402344-4.289062-.25-8.332031-1.816406-11.617187-4.382813-5.207031-4.027343-5.941407-7.238281-12.59375-22.132812-4.75-10.621094-20.007813-10.117188-24.054688.785156-1.84375 4.96875-3.933593 12.480469-12.019531 17.722656-20.441406 13.234375-46.246094 17.53125-70.460938 16.160157-3.800781-.21875-6.773437-3.375-6.785156-7.175782.019532-39.542968-.78125-45.597656 1.578125-54.296875 2.039063-7.449219 6-14.214843 11.621094-19.652343 2.984375-2.894532 3.054687-7.667969.160156-10.652344-2.894531-2.996094-7.671875-3.066406-10.664062-.171875-11.875 11.53125-17.742188 27.242187-17.742188 40.890625-.058593 2-.007812.636718-.03125 43.882812.011719 8.382813 4.683594 15.75 11.621094 19.539063v8.421875c-12.113281 4.542968-20.757813 16.234375-20.757813 29.914062 0 13.246094 8.121094 24.636719 19.652344 29.460938-3.902344 11.671875-17.363281 42.441406-52.085937 47.550781-7.609375 1.121094-11.746094 9.832031-7.488281 16.460937 5.921874 9.222657 17.902343 24.1875 34.316406 26.503907-7.644532 12.691406-12.675782 29.570312-12.675782 47.207031 0 14.59375 11.871094 26.464844 26.464844 26.464844h169.605469c14.78125 0 26.464844-12 26.464844-26.464844 0-.945312-.019531-1.878906-.039063-2.824219-.132812-4.160156-3.570312-7.4375-7.761718-7.308593-4.160157.121093-7.4375 3.601562-7.316407 7.761718.03125.785156.039063 1.578125.039063 2.371094 0 6.238281-5.042969 11.386719-11.386719 11.386719h-77.265625v-49.21875c.003906 0 32.25-13.707031 32.257812-13.710938l13.789063 9.960938c7.261719 6.027343 18.554687 1.183593 18.683594-8.382813.03125-2.460937-.089844-4.785156-.359375-6.976562 8.128906 7.800781 14.554687 17.320312 18.714844 27.753906 1.539062 3.867188 5.917968 5.757812 9.789062 4.21875 3.871094-1.546875 5.75-5.929688 4.210938-9.796875-1.707032-4.285156-3.726563-8.433594-6.050782-12.425781 16.425782-2.3125 28.40625-17.296875 34.324219-26.515625 4.265625-6.625.121094-15.339844-7.484375-16.464844zm-53.195312-89.605469c7.578124 6.703125 7.570312 18.492188 0 25.1875zm-129.367188-22.835937c25.011719.820312 52.378906-4.890625 73.816406-18.777344 7.296875-4.722656 13.046875-11.949219 16.191406-20.351563 4.507813 10.078126 8.457032 22.398438 24.285157 28.433594 0 68.519532 1.175781 67.542969-3.066407 77.285156-9.492187 21.796876-40.800781 42.015626-55.261718 42.015626-12.0625-1.199219-43.039063-19.371094-52.902344-42.015626-3.945312-9.054687-3.0625-8.402343-3.0625-66.589843zm29.105469 139.753906-6.921875-3.015625c-4.183594-1.867188-8.921875-1.246094-11.992188.902344l-9.53125 6.875c1.480469-7.054688 5.257813-12.261719 11.429688-15.800782 5.554687-2.074218 11.097656-3.457031 15.941406-4.148437 0 12.082031-.316406 12.878906 1.074219 15.1875zm-44.183594-116.9375v25.21875c-7.582031-6.726563-7.5625-18.511719 0-25.21875zm-44.238281 103.25c29.675781-7.027344 45.292968-29.304687 52.875-45.203125 7.160156 11.609375 18.167968 21.746094 29.519531 29.238281-20.503906 3.617188-39.125 14.472657-51.796875 28.242188v.003906c-11.773438 6.351563-22.433594-1.75-30.597656-12.28125zm108.925781 87.933594h-77.261719c-6.28125 0-11.386718-5.105469-11.386718-11.386719 0-22.445312 9.375-42.808594 24.28125-56.949219-.925782 7.488281-.675782 14.019531 6.382812 17.054688 4 1.730469 8.625 1.066406 11.933594-1.6875l13.777344-9.949219c39.433593 17.15625 30.082031 13.042969 32.273437 14.136719zm21.574219-81.09375-14.386719 15.5-13.6875-15.398438c0-4.414062 0-7.957031 0-12.371093 10.929687 4.109374 17.285156 4.0625 28.074219 0zm14.050781 6.757812c1.324219-2.292969 1.023437-2.980469 1.023437-15.097656 1.007813 0 8.921876 1.492187 15.902344 4.128906 6.203125 3.527344 9.992188 8.753907 11.46875 15.832031-14.414062-10.414062-13.046875-11.386718-28.394531-4.863281zm57.765625-1.320312c-14.1875-15.21875-32.628906-24.761719-51.777344-28.242188 11.398438-7.546875 22.335938-17.621093 29.523438-29.25 7.566406 15.902344 23.1875 38.183594 52.867187 45.210938-8.175781 10.546875-18.859375 18.65625-30.613281 12.28125zm0 0"/></svg>