<svg height="495pt" viewBox="0 -92 495.01123 495" width="495pt" xmlns="http://www.w3.org/2000/svg"><path d="m489.5 35.59375v267.953125h-453.871094v-29.132813h424.742188v-238.820312zm0 0" fill="#00ceb4"/><path d="m460.371094 35.59375v238.820312h-453.871094v-267.949218h453.871094zm-25.320313 151.261719v-92.828125c-33.921875-.542969-53.171875-14.832032-54.269531-57.761719h-298.992188c-1.097656 42.929687-11.199218 57.21875-45.117187 57.761719v92.828125c33.917969.550781 44.019531 14.289062 45.117187 57.769531h298.441407c1.097656-42.9375 20.898437-57.21875 54.820312-57.769531zm0 0" fill="#00acea"/><path d="m435.050781 94.027344v92.828125c-33.921875.550781-53.722656 14.832031-54.820312 57.769531h-298.441407c-1.097656-43.480469-11.199218-57.21875-45.117187-57.769531v-92.828125c33.917969-.542969 44.019531-14.832032 45.117187-57.761719h298.992188c1.097656 42.929687 20.347656 57.21875 54.269531 57.761719zm-122.011719 46.417968c.003907-43.964843-35.636718-79.609374-79.601562-79.609374s-79.609375 35.640624-79.609375 79.605468c.003906 43.96875 35.644531 79.605469 79.613281 79.605469 43.960938 0 79.597656-35.640625 79.597656-79.601563zm0 0" fill="#00efd1"/><path d="m233.441406 60.835938c43.960938.003906 79.597656 35.644531 79.597656 79.605468 0 43.964844-35.640624 79.601563-79.601562 79.605469-43.964844 0-79.605469-35.636719-79.609375-79.601563-.003906-43.96875 35.640625-79.613281 79.613281-79.609374zm0 0" fill="#00acea"/><g fill="#083863"><path d="m263.328125 101.003906c3.316406 0 6-2.683594 6-6 0-3.3125-2.683594-6-6-6h-59.777344c-3.316406 0-6 2.6875-6 6 0 3.316406 2.683594 6 6 6h17.097657c8.746093 0 16.164062 5 18.703124 13h-35.800781c-3.316406 0-6 2.6875-6 6 0 3.316406 2.683594 6 6 6h35.808594c-2.535156 8.234375-10.09375 13.890625-18.710937 14h-17.097657c-2.449219-.027344-4.664062 1.453125-5.578125 3.726563-.910156 2.273437-.332031 4.875 1.457032 6.546875l42.75 40.382812c2.394531 2.277344 6.183593 2.179688 8.457031-.214844 2.277343-2.394531 2.179687-6.183593-.214844-8.457031l-31.785156-29.984375h2.011719c8.421874-.039062 16.480468-3.441406 22.382812-9.445312 4.457031-4.550782 7.480469-10.304688 8.699219-16.554688h11.597656c3.316406 0 6-2.683594 6-6 0-3.3125-2.683594-6-6-6h-11.605469c-.980468-5-3.183594-10-6.289062-13zm0 0"/><path d="m435.121094 88.027344c-16.53125-.265625-27.75-3.847656-35.328125-11.269532-8.273438-8.109374-12.527344-21.535156-13.019531-40.777343-.070313-3.277344-2.714844-5.914063-5.992188-5.976563h-298.992188c-3.277343.0625-5.925781 2.699219-6 5.976563-1.132812 44.183593-12.320312 51.554687-39.050781 51.980469-3.257812.097656-5.820312 2.808593-5.738281 6.066406v92.828125c-.039062 1.558593.546875 3.066406 1.621094 4.191406 1.078125 1.125 2.558594 1.777344 4.117187 1.808594 27.984375.453125 38.035157 8.558593 39.136719 52.113281.027344 3.273438 2.640625 5.941406 5.914062 6.035156h298.441407c3.289062-.085937 5.929687-2.742187 6-6.035156.929687-36.332031 15.078125-51.472656 48.894531-52.019531 3.285156-.101563 5.894531-2.804688 5.875-6.09375v-92.828125c.011719-3.273438-2.609375-5.945313-5.878906-6zm-6.121094 93.078125c-34 2.367187-51.964844 20.898437-54.492188 57.898437h-286.933593c-1-21-4.292969-34-11.125-42.839844-7.007813-9.074218-17.449219-13.953124-33.449219-15.058593v-81.328125c34-2.511719 42.929688-22.773438 44.578125-57.773438h287.472656c1.316407 20 6.664063 33.71875 16.332031 43.191406 8.761719 8.585938 21.617188 13.46875 37.617188 14.585938zm0 0"/><path d="m233.441406 54.835938c-47.28125-.003907-85.609375 38.320312-85.613281 85.601562 0 47.277344 38.324219 85.605469 85.601563 85.609375 47.277343 0 85.609374-38.324219 85.609374-85.601563-.050781-47.253906-38.34375-85.550781-85.597656-85.609374zm0 159.210937c-40.652344 0-73.609375-32.953125-73.613281-73.605469 0-40.652344 32.957031-73.605468 73.609375-73.605468s73.605469 32.957031 73.601562 73.609374c-.046874 40.628907-32.972656 73.550782-73.597656 73.601563zm0 0"/><path d="m489.5 30.003906h-23.5v-23.539062c0-3.3125-2.316406-6.46093775-5.628906-6.46093775h-453.871094c-3.5.17578175-6.304688 2.96484375-6.5 6.46093775v267.949218c0 3.316407 3.1875 5.589844 6.5 5.589844h23.5v23.542969c0 3.3125 2.316406 6.457031 5.628906 6.457031h453.871094c3.3125 0 5.5-3.144531 5.5-6.457031v-267.953125c.097656-1.492188-.445312-2.957031-1.496094-4.027344-1.050781-1.066406-2.507812-1.632812-4.003906-1.5625zm-477.5-18h442v256h-442zm471 286h-441v-18h418.371094c1.507812.082032 2.980468-.480468 4.050781-1.546875 1.074219-1.0625 1.644531-2.53125 1.578125-4.042969v-232.410156h17zm0 0"/></g></svg>