<?xml version="1.0" encoding="iso-8859-1"?>
<!-- Generator: Adobe Illustrator 19.0.0, SVG Export Plug-In . SVG Version: 6.00 Build 0)  -->
<svg version="1.1" id="Capa_1" xmlns="http://www.w3.org/2000/svg" xmlns:xlink="http://www.w3.org/1999/xlink" x="0px" y="0px"
	 viewBox="0 0 511.999 511.999" style="enable-background:new 0 0 511.999 511.999;" xml:space="preserve">
<path style="fill:#FFFFFF;" d="M256,501.999L256,501.999c-135.862,0-246-110.138-246-246l0,0c0-135.862,110.138-246,246-246l0,0
	c135.862,0,246,110.138,246,246l0,0C502,391.861,391.862,501.999,256,501.999z"/>
<polygon style="fill:#F9AE18;" points="256,115.999 301.489,208.17 301.776,208.211 403.205,222.95 329.602,294.694 
	346.978,395.999 256,348.17 165.022,395.999 182.398,294.694 108.795,222.95 210.511,208.17 "/>
<path d="M256,511.999c-68.38,0-132.667-26.629-181.02-74.98C26.629,388.667,0,324.379,0,255.999s26.629-132.667,74.98-181.02
	c43.81-43.81,101.941-70.23,163.686-74.396c61.15-4.123,121.71,13.727,170.523,50.269c4.421,3.31,5.322,9.577,2.013,13.998
	c-3.31,4.421-9.577,5.322-13.999,2.013C304.019-2.898,171.572,6.673,89.123,89.122c-92.017,92.016-92.017,241.738,0,333.754
	c92.016,92.016,241.738,92.016,333.754,0c82.355-82.356,91.993-214.71,22.418-307.868c-3.305-4.425-2.396-10.691,2.028-13.996
	c4.426-3.304,10.692-2.396,13.996,2.028c36.454,48.81,54.242,109.336,50.087,170.429c-4.196,61.692-30.614,119.775-74.387,163.549
	C388.667,485.37,324.38,511.999,256,511.999z"/>
<path d="M430.042,92.145c-2.568,0-5.135-0.983-7.089-2.947l-0.189-0.19c-3.895-3.915-3.879-10.247,0.037-14.142
	c3.915-3.895,10.248-3.879,14.142,0.037l0.189,0.19c3.895,3.915,3.879,10.247-0.037,14.142
	C435.144,91.176,432.592,92.145,430.042,92.145z"/>
<path d="M256.036,358.202c-1.561,0-3.144-0.369-4.625-1.147l-0.066-0.035c-4.888-2.571-6.767-8.617-4.196-13.505
	c2.57-4.889,8.617-6.768,13.505-4.196c4.888,2.571,6.799,8.635,4.229,13.522C263.092,356.249,259.626,358.202,256.036,358.202z"/>
<path d="M346.977,405.999c-1.592,0-3.189-0.379-4.652-1.149l-59.872-31.476c-4.889-2.57-6.768-8.617-4.198-13.505
	s8.617-6.769,13.505-4.198l41.937,22.047l-13.95-81.334c-0.557-3.244,0.519-6.554,2.876-8.851l59.092-57.601l-81.657-11.866
	c-3.26-0.471-6.079-2.518-7.537-5.471l-36.521-74l-36.521,74c-1.457,2.951-4.272,4.997-7.529,5.47l-81.664,11.867l59.092,57.601
	c2.357,2.297,3.433,5.607,2.876,8.851l-13.95,81.334l43.504-22.871c4.887-2.568,10.935-0.69,13.504,4.198
	c2.57,4.888,0.691,10.935-4.198,13.504l-61.438,32.3c-3.37,1.772-7.452,1.476-10.531-0.761c-3.08-2.237-4.622-6.029-3.978-9.781
	l16.486-96.124l-69.837-68.075c-2.726-2.657-3.707-6.631-2.531-10.251s4.306-6.258,8.073-6.806l96.513-14.024l43.162-87.456
	c1.685-3.413,5.161-5.574,8.967-5.574c3.806,0,7.283,2.161,8.967,5.574l43.162,87.456l96.513,14.024
	c3.767,0.547,6.896,3.186,8.073,6.806s0.195,7.594-2.531,10.251l-69.837,68.075l16.486,96.124c0.644,3.751-0.898,7.543-3.978,9.781
	C351.113,405.355,349.05,405.999,346.977,405.999z"/>
<g>
</g>
<g>
</g>
<g>
</g>
<g>
</g>
<g>
</g>
<g>
</g>
<g>
</g>
<g>
</g>
<g>
</g>
<g>
</g>
<g>
</g>
<g>
</g>
<g>
</g>
<g>
</g>
<g>
</g>
</svg>
