<svg height="512" viewBox="0 0 64 64" width="512" xmlns="http://www.w3.org/2000/svg"><path d="m55 39v2a1 1 0 0 0 1 1h5v6a2.006 2.006 0 0 1 -2 2h-5a5 5 0 0 0 -10 0h-5v-27h4v11h17.84a3.773 3.773 0 0 1 .16 1.11v2.89h-5a1 1 0 0 0 -1 1z" fill="#ff6243"/><path d="m61 38v4h-5a1 1 0 0 1 -1-1v-2a1 1 0 0 1 1-1z" fill="#e6e7e8"/><path d="m60.84 34h-17.84v-11h10.81a2 2 0 0 1 1.76 1.05l4.86 9a3.793 3.793 0 0 1 .41.95z" fill="#e6e7e8"/><circle cx="49" cy="50" fill="#57565c" r="5"/><path d="m10 5h4v4h-4z" fill="#e6e7e8"/><path d="m15 9v4h-6v-4h1 4z" fill="#898890"/><path d="m26 5h4v4h-4z" fill="#e6e7e8"/><path d="m31 9v4h-6v-4h1 4z" fill="#898890"/><circle cx="12" cy="50" fill="#57565c" r="5"/><path d="m39 41v9h-22a5 5 0 0 0 -10 0h-3a1 1 0 0 1 -1-1v-8z" fill="#ff5023"/><path d="m35 37v4h-30v-4h2 26z" fill="#ee8700"/><path d="m7 17h26v20h-26z" fill="#ffd422"/><path d="m35 13v4h-2-26-2v-4h4 6 10 6z" fill="#ee8700"/><path d="m7 17h26v2h-26z" fill="#ebbf00"/><path d="m19 50h-2a5 5 0 0 0 -10 0h-2a7 7 0 0 1 14 0z" fill="#ed1c24"/><path d="m56 50h-2a5 5 0 0 0 -10 0h-2a7 7 0 0 1 14 0z" fill="#ff5023"/><path d="m42 37h4v2h-4z"/><path d="m11 49h2v2h-2z"/><path d="m48 49h2v2h-2z"/><path d="m61.31 32.574-4.863-9a3 3 0 0 0 -2.64-1.574h-14.807a1 1 0 0 0 -1 1v17h-2v-3a1 1 0 0 0 -1-1h-1v-18h1a1 1 0 0 0 1-1v-4a1 1 0 0 0 -1-1h-3v-3a1 1 0 0 0 -1-1v-3a1 1 0 0 0 -1-1h-4a1 1 0 0 0 -1 1v3a1 1 0 0 0 -1 1v3h-8v-3a1 1 0 0 0 -1-1v-3a1 1 0 0 0 -1-1h-4a1 1 0 0 0 -1 1v3a1 1 0 0 0 -1 1v3h-3a1 1 0 0 0 -1 1v4a1 1 0 0 0 1 1h1v18h-1a1 1 0 0 0 -1 1v3h-1a1 1 0 0 0 -1 1v8a2 2 0 0 0 2 2h2.09a5.993 5.993 0 0 0 11.82 0h25.18a5.993 5.993 0 0 0 11.82 0h4.09a3 3 0 0 0 3-3v-12.892a4.959 4.959 0 0 0 -.69-2.534zm-6.623-8.049 4.58 8.475h-15.267v-9h9.807a1 1 0 0 1 .88.525zm-27.687-18.525h2v2h-2zm-1 4h4v2h-4zm-15-4h2v2h-2zm-1 4h4v2h-4zm-4 4h28v2h-28zm2 4h24v18h-24zm-2 20h28v2h-28zm6 16a4 4 0 1 1 4-4 4 4 0 0 1 -4 4zm0-10a6.006 6.006 0 0 0 -5.91 5h-2.09v-7h34v7h-20.09a6.006 6.006 0 0 0 -5.91-5zm37 10a4 4 0 1 1 4-4 4 4 0 0 1 -4 4zm10-5h-4.09a5.993 5.993 0 0 0 -11.82 0h-3.09v-25h2v10a1 1 0 0 0 1 1h16.985c0 .036.015.071.015.108v1.892h-4a2 2 0 0 0 -2 2v2a2 2 0 0 0 2 2h4v2h-3v2h3v1a1 1 0 0 1 -1 1zm1-10v2h-4v-2z"/><path d="m22 26h-2l1.8-2.4-1.6-1.2-3 4a1 1 0 0 0 .8 1.6h2.234l-2.091 3.485 1.714 1.03 3-5a1 1 0 0 0 -.857-1.515z"/><path d="m10 21h4v2h-4z"/><path d="m29 20h-2v1h-1v2h1v1h2v-1h1v-2h-1z"/></svg>