<svg height="512pt" viewBox="0 -36 512 512" width="512pt" xmlns="http://www.w3.org/2000/svg"><path d="m10.105469 10.105469h491.789062v149.164062h-491.789062zm0 0" fill="#f6838d"/><path d="m374.234375 429.03125c-10.707031 4.007812-23.21875 1.113281-31.074219-7.183594-8.566406-9.050781-9.492187-21.195312-22.132812-26.949218-17.421875-7.933594-36.695313-14.214844-44.050782-33.875-6.75-18.03125-14.785156-34.605469-28.058593-48.90625l-27.085938-29.171876c-8.515625-9.167968-2.136719-23.714843 9.890625-24.914062 27.765625-1.851562 47.957032 27.128906 60.523438 47.925781l-31.59375-84.417969-20.941406-55.953124c-8.625-23.046876 27.265624-36.703126 35.917968-13.582032l41.550782 111.023438-19.585938-52.34375c-8.546875-22.824219 28.335938-33.839844 36.664062-11.582032l20.757813 55.460938-12.71875-33.976562c-8.910156-23.8125 24.257813-43.230469 33.671875-18.074219l17.875 47.769531-5.71875-15.285156c-9.0625-24.214844 25.574219-42.738282 35.070312-17.363282l38.898438 107.285157c4.445312 11.886719-6.257812 23.328125-1.875 35.765625 6.554688 17.523437-2.332031 37.042968-19.855469 43.601562zm0 0" fill="#ffd4be"/><path d="m501.894531 0h-378.246093c-12.976563 0-12.996094 20.214844 0 20.214844h368.136718v128.945312h-206.425781c-3.582031-9.652344-11.332031-17.089844-21.671875-18.816406-13.734375-2.296875-28.75 5.59375-33.703125 18.816406h-209.769531v-128.945312h21.996094c12.976562 0 12.996093-20.214844 0-20.214844h-32.105469c-5.578125 0-10.105469 4.527344-10.105469 10.105469v149.164062c0 5.578125 4.527344 10.105469 10.105469 10.105469h220.234375l32.980468 88.125c-8.683593-5.957031-19.117187-10.429688-32.269531-9.554688-20.367187 1.285157-30.417969 27.023438-16.625 41.878907l27.082031 29.171875c13.207032 14.222656 20.554688 31.019531 26.003907 45.570312 7.992187 21.359375 26.742187 29.585938 43.285156 36.84375 13.738281 6.027344 15.242187 17.046875 25.023437 27.382813 7.429688 7.851562 17.914063 12.117187 28.5 12.117187 4.542969 0 9.109376-.785156 13.457032-2.414062l66.128906-24.746094c11.003906-4.121094 19.742188-12.277344 24.613281-22.964844 4.851563-10.65625 5.277344-22.558594 1.207031-33.53125-1.066406-3.113281-.226562-6.636718 1.230469-12.105468 1.757813-6.59375 3.941407-14.792969.621094-23.722657l-38.878906-107.242187c-.011719-.03125-.023438-.0625-.039063-.097656-6.769531-18.09375-22.992187-21.421876-35.210937-16.851563-3.757813 1.40625-7.273438 3.554687-10.316407 6.28125l-1.699218-4.546875c-7.285156-19.464844-29.964844-24.085938-44.847656-9.570312-9.269532-13.890626-29.429688-16.03125-42.738282-6.859376l-4.925781-13.164062h208.972656c5.578125 0 10.105469-4.527344 10.105469-10.109375v-149.160156c0-5.578125-4.527344-10.105469-10.105469-10.105469zm-117.515625 253.824219c4.546875 12.15625 23.488282 5.085937 18.929688-7.085938l-5.738282-15.332031c-3.808593-10.285156 11.25-23.269531 16.144532-10.273438l38.875 107.230469c3.992187 10.980469-6.613282 23.527344-1.839844 35.863281 2.226562 5.945313 2.003906 12.402344-.628906 18.179688-2.628906 5.777344-7.355469 10.183594-13.300782 12.410156l-66.128906 24.75c-12.050781 4.503906-20.863281-4.097656-26.207031-13.757812-6.308594-11.390625-13.644531-17.675782-25.566406-22.90625-14.742188-6.46875-27.476563-12.058594-32.476563-25.421875-6.136718-16.402344-14.515625-35.433594-30.117187-52.238281l-27.085938-29.171876c-2.71875-2.929687-.328125-7.507812 3.351563-7.96875 10.179687-.597656 18.078125 4.363282 26.804687 12.019532 10.144531 8.886718 17.625 20.183594 24.195313 31.0625 6.164062 10.207031 22.296875 2.398437 18.117187-8.769532l-52.527343-140.367187c-3.921876-10.480469 13.117187-16.835937 16.984374-6.5l41.550782 111.023437c4.546875 12.15625 23.488281 5.085938 18.929687-7.085937l-19.613281-52.40625c-3.777344-10.277344 14.277344-13.742187 17.761719-4.433594l20.753906 55.460938c4.546875 12.15625 23.488281 5.085937 18.929687-7.085938l-12.714843-33.976562c-3.539063-9.460938 9.976562-23.710938 14.738281-10.988281zm0 0"/><path d="m48.902344 94.042969v-31.507813c0-6.59375-13.785156-6.316406-13.785156 0v31.507813c0 6.089843 1.769531 10.660156 5.261718 13.585937 7.140625 5.980469 20.058594 5.949219 27.207032.003906 3.515624-2.929687 5.300781-7.5 5.300781-13.589843v-31.507813c0-6.59375-13.785157-6.316406-13.785157 0v31.507813c0 7.105469-10.199218 7.21875-10.199218 0zm0 0"/><path d="m87.433594 57.757812c-2.769532 0-6.894532 1.417969-6.894532 4.847657v44.070312c0 6.613281 13.785157 6.375 13.785157 0v-17.652343l10.25 18.792968c2.527343 4.644532 14.222656 5.515625 14.222656-1.140625v-44.140625c0-6.59375-13.785156-6.304687-13.785156 0v17.402344l-8.304688-15.945312c-2.164062-4.199219-4.453125-6.234376-9.273437-6.234376zm0 0"/><path d="m146.09375 98.800781c-5.042969 2.890625-8.691406-.851562-12.507812-3.378906-8.351563-5.5-12.082032 9.082031-3.605469 13.824219 7.511719 4.203125 19 4.363281 25.835937-1.371094 7.574219-6.339844 6.972656-19.945312-.972656-25.777344-3.320312-2.4375-7.058594-4.390625-10.894531-5.882812-5.625-2.179688-5.867188-6.402344.695312-6.402344 3.460938 0 6.179688 2.636719 9.441407 2.636719 5.390624 0 7.46875-8.449219 3.722656-11.730469-3.398438-2.976562-8.882813-3.378906-13.164063-3.378906-5.164062 0-9.65625 1.320312-13.347656 3.921875-3.859375 2.714843-5.8125 6.835937-5.8125 12.238281 0 5.960938 3.300781 11.289062 8.507813 14.132812 1.605468.878907 18.296874 7.617188 12.101562 11.167969zm0 0"/><path d="m274.347656 98.800781c-5.042968 2.890625-8.695312-.851562-12.507812-3.378906-8.351563-5.5-12.085938 9.082031-3.609375 13.824219 7.511719 4.203125 19 4.363281 25.839843-1.371094 7.570313-6.339844 6.96875-19.945312-.972656-25.777344-3.320312-2.4375-7.058594-4.390625-10.894531-5.882812-5.625-2.179688-5.867187-6.402344.691406-6.402344 3.464844 0 6.183594 2.636719 9.445313 2.636719 5.386718 0 7.464844-8.449219 3.722656-11.730469-3.402344-2.976562-8.886719-3.378906-13.164062-3.378906-5.167969 0-9.660157 1.320312-13.351563 3.921875-3.855469 2.714843-5.8125 6.835937-5.8125 12.238281 0 5.960938 3.300781 11.289062 8.511719 14.132812 1.601562.878907 18.296875 7.617188 12.101562 11.167969zm0 0"/><path d="m178.019531 58.765625c-3.363281-1.765625-11.386719-1.578125-11.386719 3.769531v31.507813c0 6.085937 1.769532 10.660156 5.261719 13.582031 7.140625 5.984375 20.058594 5.949219 27.207031.007812 3.519532-2.929687 5.304688-7.5 5.304688-13.589843v-31.507813c0-6.59375-13.789062-6.316406-13.789062 0v31.507813c0 7.105469-10.199219 7.222656-10.199219 0v-31.507813c0-1.621094-.851563-2.957031-2.398438-3.769531zm0 0"/><path d="m247.691406 71.628906c0-6.328125-2.65625-13.871094-15.300781-13.871094h-14.132813c-2.855468 0-6.203124 1.617188-6.203124 4.847657v44.136719c0 3.246093 3.433593 4.78125 6.203124 4.78125h15.304688c4.609375 0 8.359375-1.34375 11.140625-3.992188 6.117187-5.820312 6.445313-20.496094-1.222656-25.160156 2.796875-2.269532 4.210937-5.871094 4.210937-10.742188zm-21.917968-1.402344h5.71875c3.273437 0 3.308593 6.617188 0 6.617188h-5.71875zm9.375 23.953126c0 4.292968-2.023438 4.871093-4 4.871093h-5.375v-10.847656h5.375c3.203124 0 4.363281 3.164063 4 5.976563zm0 0"/><path d="m437.136719 71.628906c0-6.328125-2.65625-13.871094-15.304688-13.871094h-14.128906c-2.855469 0-6.203125 1.617188-6.203125 4.847657v44.136719c0 3.246093 3.429688 4.78125 6.203125 4.78125h15.300781c4.613282 0 8.359375-1.34375 11.144532-3.992188 6.117187-5.820312 6.445312-20.496094-1.222657-25.160156 2.796875-2.269532 4.210938-5.871094 4.210938-10.742188zm-21.921875-1.402344h5.722656c3.273438 0 3.304688 6.617188 0 6.617188h-5.722656zm9.375 23.953126c0 4.292968-2.019532 4.871093-3.996094 4.871093h-5.378906v-10.847656h5.378906c3.199219 0 4.363281 3.164063 3.996094 5.976563zm0 0"/><path d="m313.039062 70.226562c3.125 0 4.507813 1.429688 4.621094 4.828126.476563 7.507812 13.78125 5.917968 13.78125-1.96875 0-4.785157-1.835937-8.601563-5.460937-11.34375-7.1875-5.4375-19.371094-5.648438-26.304688.339843-3.390625 2.925781-5.109375 7.488281-5.109375 13.570313v18.390625c0 6.082031 1.71875 10.644531 5.109375 13.570312 6.980469 6.027344 19.230469 5.792969 26.335938.105469 3.601562-2.878906 5.429687-6.851562 5.429687-11.804688 0-7.824218-13.144531-9.523437-13.777344-2.015624-.292968 3.085937-.898437 5.566406-4.558593 5.566406-3.332031 0-4.753907-1.621094-4.753907-5.421875v-18.390625c-.003906-4.78125 2.367188-5.425782 4.6875-5.425782zm0 0"/><path d="m374.867188 74.125c0-13.527344-10.046876-16.367188-18.472657-16.367188h-14.269531c-2.953125.257813-4.5625 1.851563-4.824219 4.777344v44.140625c0 6.613281 13.785157 6.375 13.785157 0v-15.210937h2.105468l9.023438 17.636718c3.554687 6.925782 16.34375-.53125 12.5-6.34375l-7.589844-13.835937c5.140625-2.652344 7.742188-7.621094 7.742188-14.796875zm-14.894532 4.898438c-.761718.71875-1.964844 1.082031-3.578125 1.082031h-5.308593v-9.878907h5.308593c4.050781 0 6.765625 5.792969 3.578125 8.796876zm0 0"/><path d="m387.894531 111.519531c2.769531 0 6.890625-1.417969 6.890625-4.847656v-44.136719c0-6.597656-13.785156-6.304687-13.785156 0v44.140625c0 3.429688 4.125 4.84375 6.894531 4.84375zm0 0"/><path d="m476.261719 70.226562c6.371093 0 6.246093-12.46875 0-12.46875h-24.539063c-2.855468 0-6.203125 1.617188-6.203125 4.847657v44.070312c0 3.226563 3.347657 4.847657 6.203125 4.847657h24.539063c6.421875 0 6.179687-12.472657 0-12.472657h-16.957031v-8.765625h8.824218c6.253906 0 6.125-11.359375 0-11.359375h-8.824218v-8.695312h16.957031zm0 0"/><path d="m325.847656 303.441406c1.664063 3.988282 5.765625 6.515625 10.070313 6.207032 4.390625-.316407 8.144531-3.570313 9.117187-7.859376 2.007813-8.832031-8.273437-15.648437-15.671875-10.476562-3.84375 2.683594-5.285156 7.808594-3.515625 12.128906zm0 0"/><path d="m78.007812 18.503906c7.625 5.085938 17.789063-2.28125 15.335938-11.089844-1.15625-4.152343-4.921875-7.183593-9.238281-7.398437-4.304688-.210937-8.371094 2.445313-9.917969 6.460937-1.667969 4.328126-.085938 9.476563 3.820312 12.027344zm0 0"/></svg>